<svg width="32" height="32" viewBox="0 0 32 32" fill="none" xmlns="http://www.w3.org/2000/svg">
<path d="M29.2223 16C29.2223 23.3024 23.3025 29.2222 16.0001 29.2222C8.69762 29.2222 2.77783 23.3024 2.77783 16C2.77783 8.69756 8.69762 2.77777 16.0001 2.77777C23.3025 2.77777 29.2223 8.69756 29.2223 16Z" stroke="#FA8C16" stroke-width="2"/>
<path d="M15.2601 7.51198C15.5767 6.97745 16.4233 6.97745 16.7398 7.51198L24.7881 21.1031C25.0879 21.6094 24.6828 22.2222 24.0482 22.2222H7.9517C7.31718 22.2222 6.91206 21.6094 7.21186 21.1031L15.2601 7.51198Z" fill="#FA8C16"/>
<path d="M16.8889 19.5556C16.8889 20.0465 16.4909 20.4445 16 20.4445C15.5091 20.4445 15.1111 20.0465 15.1111 19.5556C15.1111 19.0646 15.5091 18.6667 16 18.6667C16.4909 18.6667 16.8889 19.0646 16.8889 19.5556Z" fill="white"/>
<path d="M15.1111 13.3333C15.1111 12.8424 15.5091 12.4445 16 12.4445C16.4909 12.4445 16.8889 12.8424 16.8889 13.3333V16.8889C16.8889 17.3798 16.4909 17.7778 16 17.7778C15.5091 17.7778 15.1111 17.3798 15.1111 16.8889V13.3333Z" fill="white"/>
</svg>
