<svg width="19" height="18" viewBox="0 0 19 18" fill="none" xmlns="http://www.w3.org/2000/svg">
<path d="M7.38388 2.11612C6.89573 1.62796 6.10427 1.62796 5.61612 2.11612C5.12796 2.60427 5.12796 3.39573 5.61612 3.88388L7.38388 2.11612ZM12.5 9L13.3839 9.88388C13.872 9.39573 13.872 8.60427 13.3839 8.11612L12.5 9ZM5.61612 14.1161C5.12796 14.6043 5.12796 15.3957 5.61612 15.8839C6.10427 16.372 6.89573 16.372 7.38388 15.8839L5.61612 14.1161ZM5.61612 3.88388L11.6161 9.88388L13.3839 8.11612L7.38388 2.11612L5.61612 3.88388ZM11.6161 8.11612L5.61612 14.1161L7.38388 15.8839L13.3839 9.88388L11.6161 8.11612Z" fill="#434343"/>
</svg>
