<svg width="19" height="18" viewBox="0 0 19 18" fill="none" xmlns="http://www.w3.org/2000/svg">
<path d="M11.6161 2.11612C12.1043 1.62796 12.8957 1.62796 13.3839 2.11612C13.872 2.60427 13.872 3.39573 13.3839 3.88388L11.6161 2.11612ZM6.5 9L5.61612 9.88388C5.12796 9.39573 5.12796 8.60427 5.61612 8.11612L6.5 9ZM13.3839 14.1161C13.872 14.6043 13.872 15.3957 13.3839 15.8839C12.8957 16.372 12.1043 16.372 11.6161 15.8839L13.3839 14.1161ZM13.3839 3.88388L7.38388 9.88388L5.61612 8.11612L11.6161 2.11612L13.3839 3.88388ZM7.38388 8.11612L13.3839 14.1161L11.6161 15.8839L5.61612 9.88388L7.38388 8.11612Z" fill="#434343"/>
</svg>
