<svg width="14" height="14" viewBox="0 0 14 14" fill="none" xmlns="http://www.w3.org/2000/svg">
<path fill-rule="evenodd" clip-rule="evenodd" d="M0.875 7.00006C0.875 6.88403 0.921094 6.77275 1.00314 6.69071C1.08519 6.60866 1.19647 6.56256 1.3125 6.56256H11.6314L8.87775 3.80981C8.7956 3.72766 8.74945 3.61624 8.74945 3.50006C8.74945 3.38389 8.7956 3.27247 8.87775 3.19031C8.9599 3.10816 9.07132 3.06201 9.1875 3.06201C9.30368 3.06201 9.4151 3.10816 9.49725 3.19031L12.9972 6.69031C13.038 6.73095 13.0703 6.77923 13.0924 6.83239C13.1144 6.88554 13.1258 6.94252 13.1258 7.00006C13.1258 7.05761 13.1144 7.11459 13.0924 7.16774C13.0703 7.2209 13.038 7.26917 12.9972 7.30981L9.49725 10.8098C9.4151 10.892 9.30368 10.9381 9.1875 10.9381C9.07132 10.9381 8.9599 10.892 8.87775 10.8098C8.7956 10.7277 8.74945 10.6162 8.74945 10.5001C8.74945 10.3839 8.7956 10.2725 8.87775 10.1903L11.6314 7.43756H1.3125C1.19647 7.43756 1.08519 7.39147 1.00314 7.30942C0.921094 7.22738 0.875 7.1161 0.875 7.00006Z" fill="#52C41A"/>
</svg>
