<svg width="32" height="32" viewBox="0 0 32 32" fill="none" xmlns="http://www.w3.org/2000/svg">
<path fill-rule="evenodd" clip-rule="evenodd" d="M3 16C3 8.8203 8.8203 3 16 3C23.1797 3 29 8.8203 29 16C29 23.1797 23.1797 29 16 29C8.8203 29 3 23.1797 3 16ZM16 9.5C16.718 9.5 17.3 10.082 17.3 10.8V16C17.3 16.718 16.718 17.3 16 17.3C15.282 17.3 14.7 16.718 14.7 16V10.8C14.7 10.082 15.282 9.5 16 9.5ZM14.7 21.2C14.7 20.482 15.282 19.9 16 19.9C16.718 19.9 17.3 20.482 17.3 21.2C17.3 21.918 16.718 22.5 16 22.5C15.282 22.5 14.7 21.918 14.7 21.2Z" fill="#FA8C16"/>
</svg>
