<svg width="48" height="48" viewBox="0 0 48 48" fill="none" xmlns="http://www.w3.org/2000/svg">
<g clip-path="url(#clip0_112_12830)">
<path d="M37.696 23.06C39.0142 20.9265 39.7894 18.5025 39.954 16C39.954 15.4696 39.7433 14.9609 39.3682 14.5858C38.9931 14.2107 38.4844 14 37.954 14C37.4236 14 36.9149 14.2107 36.5398 14.5858C36.1647 14.9609 35.954 15.4696 35.954 16C35.7917 17.7517 35.227 19.4423 34.304 20.94C34.1648 21.1632 34.0709 21.4117 34.0278 21.6712C33.9846 21.9308 33.993 22.1963 34.0524 22.4525C34.1118 22.7088 34.2212 22.9509 34.3741 23.165C34.5271 23.379 34.7208 23.5608 34.944 23.7C35.1673 23.8392 35.4157 23.9331 35.6753 23.9762C35.9348 24.0194 36.2003 24.011 36.4566 23.9516C36.9742 23.8316 37.4229 23.5109 37.704 23.06H37.696Z" fill="black"/>
<path d="M17.954 14C17.4236 14 16.9149 14.2107 16.5398 14.5858C16.1647 14.9609 15.954 15.4696 15.954 16C15.7917 17.7517 15.227 19.4423 14.304 20.94C14.0229 21.3909 13.9324 21.9349 14.0524 22.4525C14.1724 22.9701 14.4931 23.4189 14.944 23.7C15.3949 23.9811 15.939 24.0716 16.4566 23.9516C16.9742 23.8316 17.4229 23.5109 17.704 23.06C19.0194 20.9257 19.7919 18.5018 19.954 16C19.954 15.4696 19.7433 14.9609 19.3682 14.5858C18.9932 14.2107 18.4844 14 17.954 14Z" fill="black"/>
<path d="M38.9999 37.178C37.6359 36.454 36.2279 35.704 36.0319 34.854C35.9399 34.468 35.9819 33.598 37.0619 31.908C43.3999 31 47.9999 22.05 47.9999 14C48.0558 12.4091 47.7836 10.8237 47.2004 9.34252C46.6171 7.86133 45.7352 6.51606 44.6095 5.39042C43.4839 4.26478 42.1386 3.38287 40.6574 2.79959C39.1762 2.21631 37.5909 1.94413 35.9999 2C34.0659 1.94703 32.1489 2.37351 30.4197 3.24139C28.6906 4.10928 27.2031 5.3916 26.0899 6.974C24.5463 4.31087 22.1673 2.23127 19.3217 1.05753C16.4761 -0.116218 13.3228 -0.318556 10.3506 0.481873C7.3783 1.2823 4.75305 3.0408 2.88171 5.4848C1.01037 7.92881 -0.00254917 10.9218 -5.64454e-05 14C-5.64454e-05 21.942 4.51394 30.97 10.7799 33.37C10.3464 34.0919 10.0799 34.9017 9.99994 35.74C9.99994 38.882 12.9779 40.274 15.1519 41.292C16.3519 41.852 17.9999 42.622 17.9999 43.218C17.837 43.839 17.5454 44.4189 17.1439 44.92C17.0021 45.1411 16.9052 45.3881 16.8588 45.6467C16.8124 45.9052 16.8174 46.1704 16.8735 46.4271C16.9296 46.6838 17.0357 46.9269 17.1857 47.1425C17.3358 47.3582 17.5268 47.5422 17.7479 47.684C18.1946 47.9704 18.7367 48.0677 19.255 47.9544C19.5117 47.8984 19.7548 47.7923 19.9705 47.6422C20.1861 47.4922 20.3701 47.3012 20.5119 47.08C21.3608 45.958 21.8765 44.6195 21.9999 43.218C21.9999 40.076 19.0219 38.684 16.8479 37.668C15.6479 37.106 13.9999 36.336 13.9819 35.938C14.286 35.2216 14.6669 34.5402 15.1179 33.906C19.8219 33.294 23.7799 28.906 26.0219 23.506C27.2812 26.8407 29.7063 29.606 32.8479 31.29C32.1028 32.6557 31.8513 34.2365 32.1359 35.766C32.7479 38.386 35.1739 39.676 37.1239 40.714C38.3559 41.37 39.7499 42.114 39.9619 42.85C40.0145 43.6207 39.7912 44.3849 39.3319 45.006C39.1985 45.2335 39.1115 45.4852 39.0757 45.7466C39.04 46.0079 39.0563 46.2737 39.1237 46.5287C39.1912 46.7837 39.3084 47.0228 39.4686 47.2324C39.6288 47.4419 39.8289 47.6176 40.0573 47.7495C40.2857 47.8814 40.538 47.9668 40.7995 48.0008C41.0611 48.0348 41.3268 48.0167 41.5813 47.9476C41.8359 47.8785 42.0742 47.7597 42.2827 47.5981C42.4911 47.4365 42.6656 47.2353 42.7959 47.006C43.3188 46.2479 43.6788 45.3895 43.8529 44.4851C44.0271 43.5808 44.0118 42.6501 43.8079 41.752C43.3626 40.7009 42.706 39.7525 41.879 38.9657C41.0519 38.1789 40.0719 37.5704 38.9999 37.178ZM13.9999 30C8.70794 30 3.99994 21.052 3.99994 14C3.99994 11.3478 5.05351 8.8043 6.92888 6.92894C8.80424 5.05357 11.3478 4 13.9999 4C16.6521 4 19.1956 5.05357 21.071 6.92894C22.9464 8.8043 23.9999 11.3478 23.9999 14C23.9999 21.052 19.2919 30 13.9999 30ZM27.9999 14C27.9397 12.9336 28.1053 11.8665 28.486 10.8686C28.8667 9.87071 29.4539 8.96446 30.2092 8.20921C30.9644 7.45397 31.8706 6.86677 32.8686 6.48606C33.8665 6.10535 34.9336 5.93971 35.9999 6C37.0663 5.93971 38.1334 6.10535 39.1313 6.48606C40.1292 6.86677 41.0355 7.45397 41.7907 8.20921C42.546 8.96446 43.1332 9.87071 43.5139 10.8686C43.8946 11.8665 44.0602 12.9336 43.9999 14C43.9999 20.8 39.8879 28 35.9999 28C32.1119 28 27.9999 20.8 27.9999 14Z" fill="black"/>
</g>
<defs>
<clipPath id="clip0_112_12830">
<rect width="48" height="48" fill="white"/>
</clipPath>
</defs>
</svg>
