<svg width="16" height="16" viewBox="0 0 16 16" fill="none" xmlns="http://www.w3.org/2000/svg">
<g clip-path="url(#clip0_19081_16444)">
<path d="M12.4444 5.77648H10.2221V3.30981C10.2202 2.78587 10.0112 2.28395 9.64071 1.91346C9.27022 1.54298 8.7683 1.33398 8.24436 1.33203H3.31103C2.78709 1.33398 2.28517 1.54298 1.91469 1.91346C1.5442 2.28395 1.3352 2.78587 1.33325 3.30981V8.24314C1.3352 8.76708 1.5442 9.269 1.91469 9.63949C2.28517 10.01 2.78709 10.219 3.31103 10.2209H5.7777V12.4431C5.7777 13.0325 6.01182 13.5977 6.42857 14.0145C6.84532 14.4312 7.41055 14.6654 7.99992 14.6654H12.4444C13.0337 14.6654 13.599 14.4312 14.0157 14.0145C14.4325 13.5977 14.6666 13.0325 14.6666 12.4431V7.9987C14.6666 7.40933 14.4325 6.8441 14.0157 6.42735C13.599 6.0106 13.0337 5.77648 12.4444 5.77648ZM5.7777 7.9987V8.73944H3.31103C3.1794 8.73944 3.05317 8.68715 2.9601 8.59408C2.86702 8.501 2.81473 8.37477 2.81473 8.24314V3.30981C2.81473 3.17818 2.86702 3.05195 2.9601 2.95887C3.05317 2.8658 3.1794 2.81351 3.31103 2.81351H8.24436C8.37599 2.81351 8.50222 2.8658 8.5953 2.95887C8.68837 3.05195 8.74066 3.17818 8.74066 3.30981V5.77648H7.99992C7.41055 5.77648 6.84532 6.0106 6.42857 6.42735C6.01182 6.8441 5.7777 7.40933 5.7777 7.9987Z" fill="#262626"/>
</g>
<defs>
<clipPath id="clip0_19081_16444">
<rect width="16" height="16" fill="white"/>
</clipPath>
</defs>
</svg>
