<svg width="24" height="24" viewBox="0 0 24 24" fill="none" xmlns="http://www.w3.org/2000/svg">
<path d="M12.0117 1.54767C6.71035 6.07386 4.05469 9.98329 4.05469 13.2859C4.05469 18.2399 7.83428 21.443 12.0117 21.443C16.1892 21.443 19.9688 18.2399 19.9688 13.2859C19.9688 9.98329 17.3131 6.07386 12.0117 1.54767ZM7.86412 13.4849C8.23213 13.4849 8.53052 13.7435 8.60014 14.1016C9.00794 16.31 10.8679 17.066 12.2206 16.9566C12.6483 16.9367 13.0063 17.2749 13.0063 17.7027C13.0063 18.1006 12.6881 18.4289 12.2902 18.4488C10.1717 18.5781 7.69503 17.3645 7.12809 14.3503C7.11081 14.2437 7.11689 14.1345 7.14592 14.0305C7.17495 13.9264 7.22623 13.8299 7.29623 13.7476C7.36622 13.6653 7.45325 13.5991 7.5513 13.5538C7.64935 13.5084 7.75609 13.4849 7.86412 13.4849Z" fill="#F00003"/>
</svg>
