<svg width="46" height="52" viewBox="0 0 46 52" fill="none" xmlns="http://www.w3.org/2000/svg">
<path d="M1.27029 0.247924C1.20327 0.276673 1.08838 0.420414 1.01178 0.564155C0.887313 0.803724 0.868164 3.60189 0.868164 22.7482V44.664L1.14582 44.9419L1.42348 45.2198H2.67774H3.93199V46.5039C3.93199 47.7784 3.93199 47.7975 4.18093 47.9892L4.43944 48.1904H20.4192H36.399L36.6288 47.9509L36.8682 47.7209V25.7285C36.8682 13.635 36.8394 3.66897 36.8107 3.58272C36.6862 3.25691 36.2458 3.1515 35.049 3.1515H33.9001V1.99199C33.9001 0.842055 33.8331 0.54499 33.5267 0.305421C33.4118 0.209593 29.8118 0.190428 17.3841 0.190428C8.58519 0.190428 1.33731 0.219176 1.27029 0.247924ZM32.4352 22.6045C32.4448 37.3907 32.4256 43.5715 32.349 43.6578C32.2054 43.8303 2.59157 43.8399 2.41923 43.6674C2.33306 43.5811 2.30433 38.7802 2.30433 22.6524C2.30433 11.1531 2.33306 1.71409 2.37136 1.68534C2.40008 1.64701 9.1788 1.62784 17.4224 1.63742L32.416 1.66617L32.4352 22.6045ZM35.3171 4.66557C35.4128 4.73265 35.432 9.00656 35.4128 25.7285L35.3841 46.7051L20.3809 46.7339L5.36816 46.753V45.9864V45.2198H19.3565H33.3448L33.6224 44.9419L33.9001 44.6544V34.4679C33.9001 28.862 33.9001 19.8542 33.9001 14.4304V4.58891H34.5511C34.9054 4.58891 35.2501 4.62724 35.3171 4.66557Z" fill="black"/>
<path d="M9.21597 6.30168C8.93772 6.40835 8.86816 6.48835 8.86816 6.73501C8.86816 6.86835 8.94766 7.00835 9.06691 7.08835C9.26565 7.22168 9.39484 7.22168 17.3645 7.22168C25.3341 7.22168 25.4633 7.22168 25.662 7.08835C25.9601 6.88835 25.9303 6.53501 25.6024 6.36168C25.3341 6.22168 25.2844 6.22168 17.3744 6.22168C11.6307 6.22835 9.35509 6.24835 9.21597 6.30168Z" fill="black"/>
<path d="M6.10619 10.335C5.78882 10.5217 5.78882 10.8817 6.10619 11.0883C6.31777 11.2217 6.37548 11.2217 17.8682 11.2217C29.3609 11.2217 29.4186 11.2217 29.6301 11.0883C29.9475 10.8817 29.9475 10.5217 29.6301 10.335C29.4474 10.2283 28.7453 10.2217 17.8682 10.2217C6.99099 10.2217 6.28892 10.2283 6.10619 10.335Z" fill="black"/>
<path d="M6.15973 14.306C5.88064 14.4586 5.78441 14.7439 5.94801 14.9496C6.025 15.0558 6.15973 15.1553 6.23672 15.1819C6.44844 15.235 29.3238 15.235 29.5259 15.1819C29.9589 15.0624 29.9878 14.4453 29.574 14.2927C29.2853 14.1865 6.36182 14.2064 6.15973 14.306Z" fill="black"/>
<path d="M6.08608 18.355C5.78767 18.5617 5.7973 18.9217 6.10534 19.1017C6.28823 19.215 6.99094 19.2217 17.83 19.2217C24.1736 19.2217 29.4391 19.2017 29.5258 19.1817C29.959 19.0617 29.9878 18.4417 29.5739 18.2883C29.4584 18.2483 25.194 18.2217 17.8396 18.2217C6.40375 18.2217 6.27861 18.2217 6.08608 18.355Z" fill="black"/>
<circle cx="30.8006" cy="35.5164" r="10.4051" fill="white"/>
<path d="M30.4795 24.6221C23.473 24.6221 17.792 30.3031 17.792 37.3096C17.792 44.316 23.473 49.9971 30.4795 49.9971C37.4859 49.9971 43.167 44.316 43.167 37.3096C43.167 30.3031 37.4859 24.6221 30.4795 24.6221ZM35.9595 33.1663L29.9952 41.4358C29.9119 41.5522 29.802 41.647 29.6746 41.7124C29.5473 41.7778 29.4063 41.8119 29.2631 41.8119C29.12 41.8119 28.9789 41.7778 28.8516 41.7124C28.7243 41.647 28.6144 41.5522 28.5311 41.4358L24.9995 36.5421C24.8919 36.392 24.9995 36.1824 25.1836 36.1824H26.5118C26.8007 36.1824 27.0754 36.3212 27.2453 36.5591L29.2617 39.3571L33.7137 33.1833C33.8836 32.9482 34.1555 32.8066 34.4472 32.8066H35.7754C35.9595 32.8066 36.0671 33.0162 35.9595 33.1663V33.1663Z" fill="#52C41A"/>
</svg>
