<svg width="46" height="56" viewBox="0 0 46 56" fill="none" xmlns="http://www.w3.org/2000/svg">
<path d="M1.13846 0.821411C1.07143 0.850159 0.956541 0.9939 0.879945 1.13764C0.755477 1.37721 0.736328 4.17537 0.736328 23.3217V45.2375L1.01399 45.5154L1.29165 45.7933H2.5459H3.80016V47.0774C3.80016 48.3519 3.80016 48.371 4.04909 48.5627L4.3076 48.7639H20.2874H36.2672L36.497 48.5243L36.7363 48.2944V26.3019C36.7363 14.2085 36.7076 4.24245 36.6789 4.15621C36.5544 3.83039 36.114 3.72498 34.9172 3.72498H33.7682V2.56547C33.7682 1.41554 33.7012 1.11848 33.3948 0.878906C33.2799 0.783081 29.6799 0.763912 17.2523 0.763912C8.45335 0.763912 1.20548 0.792664 1.13846 0.821411ZM32.3034 23.178C32.3129 37.9642 32.2938 44.145 32.2172 44.2313C32.0736 44.4038 2.45973 44.4133 2.28739 44.2409C2.20122 44.1546 2.1725 39.3537 2.1725 23.2259C2.1725 11.7266 2.20122 2.28757 2.23952 2.25882C2.26824 2.22049 9.04697 2.20133 17.2906 2.21091L32.2842 2.23966L32.3034 23.178ZM35.1853 5.23906C35.281 5.30614 35.3002 9.58004 35.281 26.3019L35.2523 47.2786L20.2491 47.3073L5.23633 47.3265V46.5599V45.7933H19.2246H33.2129L33.4906 45.5154L33.7682 45.2279V35.0414C33.7682 29.4355 33.7682 20.4277 33.7682 15.0039V5.1624H34.4193C34.7736 5.1624 35.1182 5.20073 35.1853 5.23906Z" fill="black"/>
<path d="M9.08413 6.87517C8.80589 6.98183 8.73633 7.06183 8.73633 7.3085C8.73633 7.44183 8.81583 7.58183 8.93507 7.66183C9.13382 7.79517 9.263 7.79517 17.2326 7.79517C25.2022 7.79517 25.3314 7.79517 25.5302 7.66183C25.8283 7.46183 25.7985 7.1085 25.4706 6.93517C25.2022 6.79517 25.1526 6.79517 17.2426 6.79517C11.4989 6.80183 9.22325 6.82183 9.08413 6.87517Z" fill="black"/>
<path d="M5.97436 10.9085C5.65699 11.0952 5.65699 11.4552 5.97436 11.6618C6.18594 11.7952 6.24364 11.7952 17.7363 11.7952C29.229 11.7952 29.2867 11.7952 29.4983 11.6618C29.8157 11.4552 29.8157 11.0952 29.4983 10.9085C29.3156 10.8018 28.6135 10.7952 17.7363 10.7952C6.85915 10.7952 6.15709 10.8018 5.97436 10.9085Z" fill="black"/>
<path d="M6.02789 14.8794C5.74881 15.0321 5.65257 15.3174 5.81617 15.5231C5.89316 15.6293 6.02789 15.7288 6.10488 15.7554C6.3166 15.8084 29.1919 15.8084 29.394 15.7554C29.8271 15.6359 29.856 15.0188 29.4422 14.8662C29.1534 14.76 6.22999 14.7799 6.02789 14.8794Z" fill="black"/>
<path d="M5.95425 18.9285C5.65584 19.1352 5.66546 19.4952 5.9735 19.6752C6.1564 19.7885 6.85911 19.7952 17.6982 19.7952C24.0418 19.7952 29.3073 19.7752 29.3939 19.7552C29.8271 19.6352 29.856 19.0152 29.4421 18.8618C29.3266 18.8218 25.0622 18.7952 17.7078 18.7952C6.27191 18.7952 6.14677 18.7952 5.95425 18.9285Z" fill="black"/>
</svg>
