<svg width="46" height="54" viewBox="0 0 46 54" fill="none" xmlns="http://www.w3.org/2000/svg">
<path d="M1.2908 0.355102C1.22378 0.38385 1.10888 0.527592 1.03229 0.671333C0.907821 0.910902 0.888672 3.70907 0.888672 22.8554V44.7712L1.16633 45.0491L1.44399 45.327H2.69825H3.9525V46.611C3.9525 47.8855 3.9525 47.9047 4.20144 48.0964L4.45995 48.2976H20.4397H36.4195L36.6493 48.058L36.8887 47.8281V25.8356C36.8887 13.7422 36.8599 3.77614 36.8312 3.6899C36.7068 3.36409 36.2663 3.25868 35.0695 3.25868H33.9206V2.09916C33.9206 0.949233 33.8536 0.652167 33.5472 0.412599C33.4323 0.316771 29.8323 0.297606 17.4046 0.297606C8.60569 0.297606 1.35782 0.326354 1.2908 0.355102ZM32.4557 22.7117C32.4653 37.4978 32.4461 43.6787 32.3695 43.765C32.2259 43.9375 2.61208 43.947 2.43974 43.7745C2.35357 43.6883 2.32484 38.8873 2.32484 22.7596C2.32484 11.2603 2.35357 1.82126 2.39186 1.79251C2.42059 1.75418 9.19931 1.73502 17.4429 1.7446L32.4365 1.77335L32.4557 22.7117ZM35.3376 4.77275C35.4334 4.83983 35.4525 9.11374 35.4334 25.8356L35.4046 46.8123L20.4014 46.841L5.38867 46.8602V46.0936V45.327H19.377H33.3653L33.6429 45.0491L33.9206 44.7616V34.5751C33.9206 28.9692 33.9206 19.9614 33.9206 14.5376V4.69609H34.5717C34.9259 4.69609 35.2706 4.73442 35.3376 4.77275Z" fill="black"/>
<path d="M9.23647 6.40886C8.95823 6.51552 8.88867 6.59552 8.88867 6.84219C8.88867 6.97552 8.96817 7.11552 9.08742 7.19552C9.28616 7.32886 9.41534 7.32886 17.385 7.32886C25.3546 7.32886 25.4838 7.32886 25.6825 7.19552C25.9806 6.99552 25.9508 6.64219 25.6229 6.46886C25.3546 6.32886 25.3049 6.32886 17.3949 6.32886C11.6512 6.33552 9.37559 6.35552 9.23647 6.40886Z" fill="black"/>
<path d="M6.1267 10.4422C5.80933 10.6289 5.80933 10.9889 6.1267 11.1955C6.33828 11.3289 6.39599 11.3289 17.8887 11.3289C29.3814 11.3289 29.4391 11.3289 29.6506 11.1955C29.968 10.9889 29.968 10.6289 29.6506 10.4422C29.4679 10.3355 28.7659 10.3289 17.8887 10.3289C7.01149 10.3289 6.30943 10.3355 6.1267 10.4422Z" fill="black"/>
<path d="M6.18024 14.4131C5.90115 14.5658 5.80491 14.8511 5.96852 15.0568C6.0455 15.163 6.18024 15.2625 6.25722 15.289C6.46894 15.3421 29.3443 15.3421 29.5464 15.289C29.9794 15.1696 30.0083 14.5525 29.5945 14.3999C29.3058 14.2937 6.38233 14.3136 6.18024 14.4131Z" fill="black"/>
<path d="M6.10659 18.4622C5.80818 18.6689 5.81781 19.0289 6.12584 19.2089C6.30874 19.3222 7.01145 19.3289 17.8505 19.3289C24.1941 19.3289 29.4597 19.3089 29.5463 19.2889C29.9795 19.1689 30.0083 18.5489 29.5944 18.3955C29.4789 18.3555 25.2145 18.3289 17.8601 18.3289C6.42426 18.3289 6.29912 18.3289 6.10659 18.4622Z" fill="black"/>
<circle cx="32.5984" cy="43.2972" r="10.4051" fill="white"/>
<path d="M30.6113 25.4038C23.6049 25.4038 17.9238 31.0849 17.9238 38.0913C17.9238 45.0978 23.6049 50.7788 30.6113 50.7788C37.6178 50.7788 43.2988 45.0978 43.2988 38.0913C43.2988 31.0849 37.6178 25.4038 30.6113 25.4038ZM35.6099 41.991L34.7999 43.0955C34.7823 43.1196 34.7601 43.1399 34.7346 43.1553C34.7091 43.1708 34.6808 43.181 34.6513 43.1855C34.6218 43.19 34.5918 43.1886 34.5628 43.1814C34.5339 43.1742 34.5067 43.1614 34.4827 43.1437L29.7985 39.7282C29.7694 39.7073 29.7456 39.6796 29.7294 39.6476C29.7131 39.6155 29.7048 39.5801 29.7051 39.5441V31.7476C29.7051 31.6229 29.807 31.521 29.9316 31.521H31.2938C31.4185 31.521 31.5204 31.6229 31.5204 31.7476V38.7568L35.5589 41.6767C35.6608 41.7475 35.6835 41.8891 35.6099 41.991Z" fill="#FAAD14"/>
</svg>
