<svg width="46" height="54" viewBox="0 0 46 54" fill="none" xmlns="http://www.w3.org/2000/svg">
<path d="M1.2908 0.93811C1.22378 0.966858 1.10888 1.1106 1.03229 1.25434C0.907821 1.49391 0.888672 4.29207 0.888672 23.4384V45.3542L1.16633 45.6321L1.44399 45.91H2.69825H3.9525V47.1941C3.9525 48.4686 3.9525 48.4877 4.20144 48.6794L4.45995 48.8806H20.4397H36.4195L36.6493 48.641L36.8887 48.4111V26.4186C36.8887 14.3252 36.8599 4.35915 36.8312 4.27291C36.7068 3.94709 36.2663 3.84168 35.0695 3.84168H33.9206V2.68217C33.9206 1.53224 33.8536 1.23518 33.5472 0.995606C33.4323 0.899779 29.8323 0.880613 17.4046 0.880613C8.60569 0.880613 1.35782 0.909362 1.2908 0.93811ZM32.4557 23.2947C32.4653 38.0809 32.4461 44.2617 32.3695 44.348C32.2259 44.5205 2.61208 44.53 2.43974 44.3576C2.35357 44.2713 2.32484 39.4704 2.32484 23.3426C2.32484 11.8433 2.35357 2.40427 2.39186 2.37552C2.42059 2.33719 9.19931 2.31803 17.4429 2.32761L32.4365 2.35636L32.4557 23.2947ZM35.3376 5.35576C35.4334 5.42284 35.4525 9.69674 35.4334 26.4186L35.4046 47.3953L20.4014 47.424L5.38867 47.4432V46.6766V45.91H19.377H33.3653L33.6429 45.6321L33.9206 45.3446V35.1581C33.9206 29.5522 33.9206 20.5444 33.9206 15.1206V5.2791H34.5717C34.9259 5.2791 35.2706 5.31743 35.3376 5.35576Z" fill="black"/>
<path d="M10.2365 6.99187C9.95823 7.09853 9.88867 7.17853 9.88867 7.4252C9.88867 7.55853 9.96817 7.69853 10.0874 7.77853C10.2862 7.91187 10.4153 7.91187 18.385 7.91187C26.3546 7.91187 26.4838 7.91187 26.6825 7.77853C26.9806 7.57853 26.9508 7.2252 26.6229 7.05187C26.3546 6.91187 26.3049 6.91187 18.3949 6.91187C12.6512 6.91853 10.3756 6.93853 10.2365 6.99187Z" fill="black"/>
<path d="M7.1267 11.0252C6.80933 11.2119 6.80933 11.5719 7.1267 11.7785C7.33828 11.9119 7.39599 11.9119 18.8887 11.9119C30.3814 11.9119 30.4391 11.9119 30.6506 11.7785C30.968 11.5719 30.968 11.2119 30.6506 11.0252C30.4679 10.9185 29.7659 10.9119 18.8887 10.9119C8.01149 10.9119 7.30943 10.9185 7.1267 11.0252Z" fill="black"/>
<path d="M7.18024 14.9961C6.90115 15.1488 6.80491 15.4341 6.96852 15.6398C7.0455 15.746 7.18024 15.8455 7.25722 15.8721C7.46894 15.9251 30.3443 15.9251 30.5464 15.8721C30.9794 15.7526 31.0083 15.1355 30.5945 14.9829C30.3058 14.8767 7.38233 14.8966 7.18024 14.9961Z" fill="black"/>
<path d="M7.10659 19.0452C6.80818 19.2519 6.81781 19.6119 7.12584 19.7919C7.30874 19.9052 8.01145 19.9119 18.8505 19.9119C25.1941 19.9119 30.4597 19.8919 30.5463 19.8719C30.9795 19.7519 31.0083 19.1319 30.5944 18.9785C30.4789 18.9385 26.2145 18.9119 18.8601 18.9119C7.42426 18.9119 7.29912 18.9119 7.10659 19.0452Z" fill="black"/>
<circle cx="30.5985" cy="36.825" r="10.4051" fill="white"/>
<path d="M30.6113 25.9316C23.6049 25.9316 17.9238 31.6127 17.9238 38.6191C17.9238 45.6256 23.6049 51.3066 30.6113 51.3066C37.6178 51.3066 43.2988 45.6256 43.2988 38.6191C43.2988 31.6127 37.6178 25.9316 30.6113 25.9316ZM29.7051 32.502C29.7051 32.3773 29.807 32.2754 29.9316 32.2754H31.291C31.4156 32.2754 31.5176 32.3773 31.5176 32.502V40.2051C31.5176 40.3297 31.4156 40.4316 31.291 40.4316H29.9316C29.807 40.4316 29.7051 40.3297 29.7051 40.2051V32.502ZM30.6113 44.9629C30.2556 44.9556 29.9169 44.8092 29.6679 44.5551C29.4189 44.3009 29.2794 43.9593 29.2794 43.6035C29.2794 43.2477 29.4189 42.9061 29.6679 42.652C29.9169 42.3978 30.2556 42.2514 30.6113 42.2441C30.9671 42.2514 31.3058 42.3978 31.5548 42.652C31.8038 42.9061 31.9432 43.2477 31.9432 43.6035C31.9432 43.9593 31.8038 44.3009 31.5548 44.5551C31.3058 44.8092 30.9671 44.9556 30.6113 44.9629Z" fill="#F00003"/>
</svg>
