<svg width="46" height="54" viewBox="0 0 46 54" fill="none" xmlns="http://www.w3.org/2000/svg">
<path d="M1.15213 0.807495C1.08511 0.836243 0.970213 0.979984 0.893617 1.12373C0.769149 1.36329 0.75 4.16146 0.75 23.3078V45.2235L1.02766 45.5014L1.30532 45.7793H2.55957H3.81383V47.0634C3.81383 48.3379 3.81383 48.3571 4.06277 48.5488L4.32128 48.75H20.3011H36.2809L36.5106 48.5104L36.75 48.2804V26.288C36.75 14.1946 36.7213 4.22854 36.6926 4.14229C36.5681 3.81648 36.1277 3.71107 34.9309 3.71107H33.7819V2.55156C33.7819 1.40163 33.7149 1.10456 33.4085 0.864991C33.2936 0.769164 29.6936 0.749998 17.266 0.749998C8.46702 0.749998 1.21915 0.778746 1.15213 0.807495ZM32.317 23.1641C32.3266 37.9502 32.3074 44.1311 32.2309 44.2174C32.0872 44.3898 2.4734 44.3994 2.30106 44.2269C2.21489 44.1407 2.18617 39.3397 2.18617 23.212C2.18617 11.7127 2.21489 2.27366 2.25319 2.24491C2.28191 2.20658 9.06064 2.18741 17.3043 2.19699L32.2979 2.22574L32.317 23.1641ZM35.1989 5.22514C35.2947 5.29222 35.3138 9.56613 35.2947 26.288L35.266 47.2647L20.2628 47.2934L5.25 47.3126V46.546V45.7793H19.2383H33.2266L33.5043 45.5014L33.7819 45.214V35.0275C33.7819 29.4216 33.7819 20.4138 33.7819 14.99V5.14848H34.433C34.7872 5.14848 35.1319 5.18681 35.1989 5.22514Z" fill="black"/>
<path d="M9.0978 6.86125C8.81956 6.96792 8.75 7.04792 8.75 7.29458C8.75 7.42792 8.8295 7.56792 8.94874 7.64792C9.14749 7.78125 9.27667 7.78125 17.2463 7.78125C25.2159 7.78125 25.3451 7.78125 25.5438 7.64792C25.842 7.44792 25.8122 7.09458 25.4842 6.92125C25.2159 6.78125 25.1662 6.78125 17.2562 6.78125C11.5125 6.78792 9.23692 6.80792 9.0978 6.86125Z" fill="black"/>
<path d="M5.98803 10.8946C5.67066 11.0812 5.67066 11.4412 5.98803 11.6479C6.19961 11.7812 6.25731 11.7812 17.75 11.7812C29.2427 11.7812 29.3004 11.7812 29.512 11.6479C29.8293 11.4412 29.8293 11.0812 29.512 10.8946C29.3292 10.7879 28.6272 10.7812 17.75 10.7812C6.87282 10.7812 6.17076 10.7879 5.98803 10.8946Z" fill="black"/>
<path d="M6.04156 14.8655C5.76248 15.0181 5.66624 15.3035 5.82984 15.5092C5.90683 15.6154 6.04156 15.7149 6.11855 15.7414C6.33027 15.7945 29.2056 15.7945 29.4077 15.7414C29.8408 15.622 29.8696 15.0049 29.4558 14.8523C29.1671 14.7461 6.24366 14.766 6.04156 14.8655Z" fill="black"/>
<path d="M5.96792 18.9146C5.66951 19.1212 5.67914 19.4812 5.98717 19.6612C6.17007 19.7746 6.87278 19.7812 17.7118 19.7812C24.0555 19.7812 29.321 19.7612 29.4076 19.7412C29.8408 19.6212 29.8697 19.0012 29.4557 18.8479C29.3402 18.8079 25.0758 18.7812 17.7215 18.7812C6.28558 18.7812 6.16044 18.7812 5.96792 18.9146Z" fill="black"/>
<circle cx="30.6551" cy="37.9608" r="10.4051" fill="white"/>
<path d="M30.75 26.0625C23.7436 26.0625 18.0625 31.7436 18.0625 38.75C18.0625 45.7564 23.7436 51.4375 30.75 51.4375C37.7564 51.4375 43.4375 45.7564 43.4375 38.75C43.4375 31.7436 37.7564 26.0625 30.75 26.0625ZM35.4342 43.5701L33.565 43.5616L30.75 40.2057L27.9378 43.5588L26.0658 43.5673C25.9412 43.5673 25.8393 43.4682 25.8393 43.3407C25.8393 43.2869 25.8591 43.2359 25.8931 43.1935L29.5775 38.8038L25.8931 34.417C25.8588 34.3755 25.8399 34.3235 25.8393 34.2697C25.8393 34.1451 25.9412 34.0432 26.0658 34.0432L27.9378 34.0517L30.75 37.4076L33.5622 34.0545L35.4313 34.046C35.556 34.046 35.6579 34.1451 35.6579 34.2726C35.6579 34.3264 35.6381 34.3773 35.6041 34.4198L31.9253 38.8066L35.6069 43.1963C35.6409 43.2388 35.6607 43.2897 35.6607 43.3436C35.6607 43.4682 35.5588 43.5701 35.4342 43.5701Z" fill="#626262"/>
</svg>
