<svg width="32" height="32" viewBox="0 0 32 32" fill="none" xmlns="http://www.w3.org/2000/svg">
<path d="M15.7399 24.84C14.9599 25.88 13.7899 26.4 12.4899 26.4C9.62994 26.4 7.28994 24.06 7.28994 21.2V13.4C7.28994 12.62 6.76994 12.1 5.98994 12.1C5.20994 12.1 4.68994 12.62 4.68994 13.4V21.2C4.68994 25.49 8.19994 29 12.4899 29C14.5699 29 16.3899 28.09 17.5599 26.53C17.9499 26.01 17.9499 25.1 17.2999 24.71C16.9099 24.19 16.1299 24.32 15.7399 24.84Z" fill="#262626"/>
<path d="M28.61 26.79L22.37 20.55L23.67 18.86C24.84 17.3 25.49 15.35 25.49 13.4C25.49 7.68 20.81 3 15.09 3C12.36 3 9.76 4.04 7.81 5.99L5.21 3.39C4.69 2.87 3.91 2.87 3.39 3.39C2.87 3.91 2.87 4.69 3.39 5.21L26.79 28.61C27.05 28.87 27.44 29 27.7 29C27.96 29 28.35 28.87 28.61 28.61C29.13 28.09 29.13 27.31 28.61 26.79ZM15.09 5.6C19.38 5.6 22.89 9.11 22.89 13.4C22.89 14.83 22.37 16.13 21.59 17.3L20.42 18.73L12.88 11.06C13.53 10.54 14.31 10.15 15.09 10.15C16.91 10.15 18.34 11.58 18.34 13.4C18.34 14.18 18.86 14.7 19.64 14.7C20.42 14.7 20.94 14.18 20.94 13.4C20.94 10.15 18.34 7.55 15.09 7.55C13.66 7.55 12.1 8.2 11.06 9.24L9.63 7.81C11.19 6.38 13.01 5.6 15.09 5.6Z" fill="#262626"/>
</svg>
