<svg width="32" height="32" viewBox="0 0 32 32" fill="none" xmlns="http://www.w3.org/2000/svg">
<path d="M15.7601 24.16C15.0401 25.12 13.9601 25.6 12.7601 25.6C10.1201 25.6 7.96006 23.44 7.96006 20.8V13.6C7.96006 12.88 7.48006 12.4 6.76006 12.4C6.04006 12.4 5.56006 12.88 5.56006 13.6V20.8C5.56006 24.76 8.80006 28 12.7601 28C14.6801 28 16.3601 27.16 17.4401 25.72C17.8001 25.24 17.8001 24.4 17.2001 24.04C16.8401 23.56 16.1201 23.68 15.7601 24.16Z" fill="#262626"/>
<path d="M27.64 25.96L21.88 20.2L23.08 18.64C24.16 17.2 24.76 15.4 24.76 13.6C24.76 8.32 20.44 4 15.16 4C12.64 4 10.24 4.96 8.44 6.76L6.04 4.36C5.56 3.88 4.84 3.88 4.36 4.36C3.88 4.84 3.88 5.56 4.36 6.04L25.96 27.64C26.2 27.88 26.56 28 26.8 28C27.04 28 27.4 27.88 27.64 27.64C28.12 27.16 28.12 26.44 27.64 25.96ZM15.16 6.4C19.12 6.4 22.36 9.64 22.36 13.6C22.36 14.92 21.88 16.12 21.16 17.2L20.08 18.52L13.12 11.44C13.72 10.96 14.44 10.6 15.16 10.6C16.84 10.6 18.16 11.92 18.16 13.6C18.16 14.32 18.64 14.8 19.36 14.8C20.08 14.8 20.56 14.32 20.56 13.6C20.56 10.6 18.16 8.2 15.16 8.2C13.84 8.2 12.4 8.8 11.44 9.76L10.12 8.44C11.56 7.12 13.24 6.4 15.16 6.4Z" fill="#262626"/>
</svg>
