<svg width="36" height="36" viewBox="0 0 36 36" fill="none" xmlns="http://www.w3.org/2000/svg">
    <path fill-rule="evenodd" clip-rule="evenodd" d="M25.6488 10.6206C25.6487 13.2455 24.9798 16.6684 23.9509 16.1489C23.5301 17.4889 22.6467 18.6455 21.4507 19.4225C20.2547 20.1994 18.8198 20.5488 17.3897 20.4112C15.9595 20.2736 14.6223 19.6576 13.605 18.6678C12.5878 17.6779 11.9532 16.3752 11.809 14.9809C10.7878 13.2388 9.44845 9.74763 12.8917 7.02631C12.9531 7.00683 12.9903 6.84667 13.0452 6.6102L13.0452 6.61019L13.0472 6.60158L13.0476 6.60017C13.2608 5.68707 13.734 3.66127 16.7106 4.04864C19.0073 4.34671 25.6488 5.50335 25.6488 10.6206ZM22.6886 12.2748C22.6886 12.2748 22.337 13.2775 22.6668 14.3946C22.6625 15.5859 22.1794 16.7279 21.3212 17.5757C20.463 18.4234 19.2982 18.9092 18.0768 18.9288C16.8554 18.9483 15.6748 18.5001 14.7885 17.6803C13.9022 16.8605 13.381 15.7345 13.3366 14.5441C13.4493 14.1269 13.4493 13.4208 13.4486 12.6358L13.4486 12.6317C13.4478 11.2166 13.4469 9.54826 14.1112 8.86783C18.7693 11.8933 22.6886 12.2748 22.6886 12.2748ZM9.44444 27.4492C9.44444 26.6286 9.89011 25.9096 10.559 25.5091C10.5335 25.4147 10.5097 25.3199 10.4874 25.2247C10.3694 24.7065 10.2773 24.1831 10.2113 23.6562C10.1445 23.1514 10.1043 22.6436 10.0908 22.1348C6.80778 23.3915 4 25.5819 4 27.8815V31.9999H32V27.8815C32 25.679 29.4256 23.5773 26.3238 22.2993V22.3206C26.3378 22.7832 26.3113 23.3141 26.26 23.8246C26.2133 24.2979 26.1441 24.7696 26.0609 25.1739H26.5556C26.7 25.1739 26.8415 25.2132 26.9643 25.2873C27.0871 25.3614 27.1863 25.4673 27.2509 25.5933L28.0287 27.1102C28.0831 27.2156 28.1111 27.3317 28.1111 27.4492V28.9661C28.1111 29.1673 28.0292 29.3602 27.8833 29.5024C27.7374 29.6447 27.5396 29.7246 27.3333 29.7246H25.7778V28.2077H26.5556V27.6282L26.0749 26.6908H23.9251L23.4444 27.6282V28.2077H24.2222V29.7246H22.6667C22.4604 29.7246 22.2626 29.6447 22.1167 29.5024C21.9708 29.3602 21.8889 29.1673 21.8889 28.9661V27.4492C21.8889 27.3317 21.9169 27.2156 21.9713 27.1102L22.7491 25.5933C22.8137 25.4673 22.9129 25.3614 23.0357 25.2873C23.1585 25.2132 23.3 25.1739 23.4444 25.1739H24.4672C24.4843 25.1086 24.5014 25.0366 24.5186 24.957C24.5963 24.5997 24.6656 24.1469 24.7122 23.679C24.7589 23.2102 24.7807 22.7453 24.769 22.3631C24.7661 22.2047 24.7534 22.0466 24.7309 21.8898C24.7155 21.7926 24.7 21.743 24.6949 21.7264L24.6949 21.7264L24.6936 21.7222L24.6927 21.7199L24.6936 21.7206L24.6959 21.7199C24.2832 21.5949 23.8657 21.4853 23.4444 21.3915C23.0532 21.3043 22.6488 21.8291 22.4722 22.1575H13.3333C13.3106 22.1152 13.2883 22.0728 13.2664 22.0301L13.2657 22.0287C13.101 21.7089 12.898 21.315 12.5556 21.3915C12.2561 21.4575 11.9567 21.5333 11.6572 21.6167C11.6476 21.7498 11.6434 21.8831 11.6448 22.0164C11.6479 22.4359 11.6891 22.9493 11.7552 23.4681C11.8213 23.9854 11.9108 24.489 12.0041 24.8864C12.0306 25.0009 12.057 25.1041 12.0819 25.1928C12.5266 25.2498 12.945 25.4306 13.287 25.7135C13.629 25.9963 13.8802 26.3694 14.0105 26.7878C14.1408 27.2063 14.1446 27.6526 14.0215 28.0731C13.8985 28.4937 13.6537 28.8707 13.3166 29.1592C12.9795 29.4476 12.5642 29.6352 12.1206 29.6994C11.677 29.7637 11.2238 29.7019 10.8152 29.5215C10.4067 29.3411 10.0601 29.0497 9.81698 28.6821C9.57387 28.3146 9.44453 27.8866 9.44444 27.4492ZM11.7778 28.2203C12.1962 28.2203 12.5556 27.8858 12.5556 27.4505C12.5556 27.0144 12.1962 26.6807 11.7778 26.6807C11.3593 26.6807 11 27.0151 11 27.4505C11 27.8866 11.3593 28.2203 11.7778 28.2203Z"/>
</svg>
