<svg width="12" height="18" viewBox="0 0 12 18" fill="none" xmlns="http://www.w3.org/2000/svg">
    <path fill-rule="evenodd" clip-rule="evenodd" d="M11.8334 13.2758V3.32334C11.8334 2.88131 11.6578 2.45739 11.3453 2.14483C11.0327 1.83226 10.6088 1.65667 10.1667 1.65667H7.66675L7.19508 1.17167C7.03976 1.01191 6.85398 0.88491 6.64872 0.798191C6.44347 0.711472 6.2229 0.666792 6.00008 0.666792C5.77726 0.666792 5.5567 0.711472 5.35144 0.798191C5.14619 0.88491 4.96041 1.01191 4.80508 1.17167L4.33342 1.65667H1.83341C1.39139 1.65667 0.967464 1.83226 0.654903 2.14483C0.342343 2.45739 0.166748 2.88131 0.166748 3.32334V13.2758C0.166748 13.7179 0.342343 14.1418 0.654903 14.4543C0.967464 14.7669 1.39139 14.9425 1.83341 14.9425H3.50008V15.7758H5.58342V17.4425H6.41675V15.7758H8.50008V14.9425H10.1667C10.6088 14.9425 11.0327 14.7669 11.3453 14.4543C11.6578 14.1418 11.8334 13.7179 11.8334 13.2758ZM7.06925 2.2375C7.14691 2.3174 7.23979 2.38091 7.34242 2.42428C7.44505 2.46765 7.55533 2.49 7.66675 2.49H10.1667C10.3878 2.49 10.5997 2.5778 10.756 2.73408C10.9123 2.89036 11.0001 3.10232 11.0001 3.32334V10.5838C10.8775 10.4884 10.7488 10.4013 10.6147 10.3229C9.85425 9.88042 8.75425 9.65042 7.45508 10.4171C6.38508 11.0483 5.37883 11.2188 4.28425 11.2421C3.79633 11.2525 3.29758 11.2338 2.763 11.2133L2.54217 11.205C2.02846 11.1828 1.51424 11.1745 1.00008 11.18V3.32375C1.00008 3.10274 1.08788 2.89078 1.24416 2.7345C1.40044 2.57822 1.6124 2.49042 1.83341 2.49042H4.33342C4.44483 2.49041 4.55511 2.46806 4.65774 2.42469C4.76037 2.38132 4.85326 2.31781 4.93092 2.23792L5.40258 1.75292C5.48024 1.67304 5.57314 1.60954 5.67576 1.56618C5.77839 1.52282 5.88867 1.50048 6.00008 1.50048C6.11149 1.50048 6.22177 1.52282 6.3244 1.56618C6.42703 1.60954 6.51992 1.67304 6.59758 1.75292L7.06925 2.23792V2.2375Z"/>
</svg>
