<svg width="855" height="800" viewBox="0 0 855 800" fill="none" xmlns="http://www.w3.org/2000/svg">
<path d="M847.861 568.174L847.861 568.173C818.957 450.063 773.114 336.967 711.8 232.559C709.303 228.308 706.889 224.132 704.529 220.047C692.839 199.816 682.442 181.822 669.548 168.124C654.203 151.822 635.372 141.687 606.582 141.687C556.04 141.687 515 183.559 515 235.3V322.765V326.688L511.825 324.383L467.899 292.488L467.899 292.487C464.698 290.162 462.091 287.025 460.294 283.366C458.497 279.708 457.562 275.634 457.562 271.502V23.2812C457.562 11.3586 448.735 2 438.188 2H416.812C406.265 2 397.438 11.3586 397.438 23.2812V271.502C397.438 279.883 393.599 287.764 387.102 292.487L387.101 292.488L343.175 324.383L340 326.688V322.765V235.3C340 183.559 298.96 141.687 248.418 141.687C219.628 141.687 200.797 151.822 185.452 168.124C172.558 181.822 162.161 199.816 150.471 220.046C148.111 224.132 145.698 228.308 143.2 232.559C81.8862 336.967 36.0433 450.063 7.13947 568.173L7.13917 568.174C3.71769 582.116 2 596.434 2 610.811C2 698.631 84.2452 761.924 166.752 737.84L246.241 714.631L246.787 716.504L246.241 714.631C301.714 698.445 340 646.615 340 587.603V464.222L228.499 545.19C228.499 545.19 228.499 545.19 228.498 545.19C227.112 546.198 225.547 546.905 223.892 547.262C222.236 547.619 220.53 547.617 218.874 547.256C217.22 546.895 215.656 546.185 214.271 545.174C212.887 544.163 211.71 542.873 210.801 541.385L198.939 522.019C198.028 520.533 197.4 518.873 197.084 517.136C196.768 515.399 196.77 513.612 197.089 511.875C197.408 510.139 198.04 508.48 198.954 506.995C199.868 505.51 201.048 504.225 202.435 503.22L847.861 568.174ZM847.861 568.174C851.282 582.116 853 596.434 853 610.811C853 698.631 770.755 761.924 688.248 737.84L608.76 714.632C553.286 698.431 515 646.615 515 587.603V464.222L626.501 545.19C626.501 545.19 626.502 545.19 626.502 545.19C627.888 546.198 629.453 546.904 631.109 547.261C632.765 547.618 634.47 547.616 636.125 547.255C637.78 546.894 639.344 546.184 640.728 545.173C642.112 544.163 643.289 542.873 644.199 541.385L656.061 522.019C656.972 520.532 657.6 518.872 657.915 517.135C658.231 515.398 658.229 513.612 657.91 511.875C657.591 510.139 656.959 508.481 656.046 506.996C655.132 505.511 653.951 504.225 652.564 503.219L428.675 340.659L427.5 339.806L426.325 340.659L202.437 503.219L847.861 568.174Z"  stroke="white" stroke-width="4"/>
<path d="M515.575 505.488C496.787 482.314 479.157 477.333 462.662 490.556C437.92 510.391 430.819 579.546 450.719 640.514C470.631 701.482 509.342 784.507 587.498 784.507C665.644 784.507 684.131 700.968 716.008 650.465C747.896 599.961 764.758 551.234 733.515 490.556" />
<path d="M515.575 505.488C496.787 482.314 479.157 477.333 462.662 490.556C437.92 510.391 430.819 579.546 450.719 640.514C470.631 701.482 509.342 784.507 587.498 784.507C665.644 784.507 684.131 700.968 716.008 650.465C747.896 599.961 764.758 551.234 733.515 490.556" stroke="white" stroke-width="29" stroke-linecap="round" stroke-linejoin="round"/>
<path d="M476.174 483.352C461.46 460.794 446.619 438.319 431.653 415.929C415.559 391.972 456.707 361.003 476.174 382.066C489.152 396.116 506.392 416.8 527.896 444.129" />
<path d="M476.174 483.352C461.46 460.794 446.619 438.319 431.653 415.929C415.559 391.972 456.707 361.003 476.174 382.066C489.152 396.116 506.392 416.8 527.896 444.129" stroke="white" stroke-width="29" stroke-linecap="round"/>
<path d="M520.962 568.261C515.564 500.536 519.96 456.443 534.118 435.972C555.376 405.259 594.855 393.621 632.03 393.621C654.179 393.621 674.392 403.081 692.69 422" />
<path d="M520.962 568.261C515.564 500.536 519.96 456.443 534.118 435.972C555.376 405.259 594.855 393.621 632.03 393.621C654.179 393.621 674.392 403.081 692.69 422" stroke="white" stroke-width="29" stroke-linecap="round" stroke-linejoin="round"/>
<path d="M810.08 422.783C816.602 445.521 805.962 466.306 773.172 471.008C740.394 475.709 715.818 492.25 698.099 506.166C680.369 520.081 648.681 562.298 642.415 583.484C636.16 604.682 600.387 585.193 590.782 576.727C581.176 568.273 571.727 549.745 590.782 530.367C609.837 510.99 605.707 507.126 605.707 487.481C605.707 467.825 709.908 402.825 768.598 396.883C781.642 396.124 803.569 400.033 810.08 422.783Z"  stroke="white" stroke-width="29"/>
<path d="M609.825 326.593V385.372ZM579.763 401.622C546.172 359.26 519.092 335.617 498.512 330.703ZM543 360.422L554.019 315ZM750.122 401.611C746.538 413.952 746.538 425.511 750.122 436.311C753.705 447.111 761.396 458.67 773.172 471.011" />
<path d="M609.825 326.593V385.372M579.763 401.622C546.172 359.26 519.092 335.617 498.512 330.703M543 360.422L554.019 315M750.122 401.611C746.538 413.952 746.538 425.511 750.122 436.311C753.705 447.111 761.396 458.67 773.172 471.011" stroke="white" stroke-width="29" stroke-linecap="round"/>
</svg>
