<svg width="32" height="32" viewBox="0 0 32 32" fill="none" xmlns="http://www.w3.org/2000/svg">
<circle cx="16" cy="16" r="15" fill="#F759AB"/>
<path fill-rule="evenodd" clip-rule="evenodd" d="M9.58116 10.9451C10.1137 10.4125 10.9771 10.4125 11.5096 10.9451L14.6363 14.0717V11.9093C14.6363 11.1562 15.2468 10.5457 15.9999 10.5457C16.7531 10.5457 17.3636 11.1562 17.3636 11.9093V14.0717L20.4903 10.9451C21.0228 10.4125 21.8862 10.4125 22.4187 10.9451C22.9513 11.4776 22.9513 12.341 22.4187 12.8735L19.2921 16.0002L22.4187 19.1269C22.9513 19.6594 22.9513 20.5228 22.4187 21.0553C21.8862 21.5879 21.0228 21.5879 20.4903 21.0553L17.3636 17.9287V20.0911C17.3636 20.8442 16.7531 21.4547 15.9999 21.4547C15.2468 21.4547 14.6363 20.8442 14.6363 20.0911V17.9287L11.5096 21.0553C10.9771 21.5879 10.1137 21.5879 9.58116 21.0553C9.04863 20.5228 9.04863 19.6594 9.58116 19.1269L12.7078 16.0002L9.58116 12.8735C9.04863 12.341 9.04863 11.4776 9.58116 10.9451Z" fill="white"/>
</svg>
