<svg width="18" height="18" viewBox="0 0 18 18" fill="none" xmlns="http://www.w3.org/2000/svg">
<path d="M5.13471 14.7305C5.13471 15.0416 5.38432 15.293 5.6937 15.293H10.3062C10.6156 15.293 10.8652 15.0416 10.8652 14.7305V11.2852H5.13471V14.7305ZM14.4705 2.70703H1.52944C1.09878 2.70703 0.829831 3.17637 1.04604 3.55078L4.93608 10.1602H11.0673L14.9574 3.55078C15.1701 3.17637 14.9011 2.70703 14.4705 2.70703Z" fill="currentColor" fill-opacity="0.85"/>
<g clip-path="url(#clip0_3050_441320)">
<path d="M15 13.875C14.7679 13.875 14.5453 13.7828 14.3812 13.6187C14.2171 13.4546 14.125 13.2321 14.125 13C14.125 12.7679 14.2171 12.5454 14.3812 12.3813C14.5453 12.2172 14.7679 12.125 15 12.125C15.232 12.125 15.4546 12.2172 15.6187 12.3813C15.7828 12.5454 15.875 12.7679 15.875 13C15.875 13.2321 15.7828 13.4546 15.6187 13.6187C15.4546 13.7828 15.232 13.875 15 13.875ZM16.8575 13.2425C16.8675 13.1625 16.875 13.0825 16.875 13C16.875 12.9175 16.8675 12.835 16.8575 12.75L17.385 12.3425C17.4325 12.305 17.445 12.2375 17.415 12.1825L16.915 11.3175C16.885 11.2625 16.8175 11.24 16.7625 11.2625L16.14 11.5125C16.01 11.415 15.875 11.33 15.7175 11.2675L15.625 10.605C15.6199 10.5756 15.6045 10.5489 15.5817 10.5296C15.5588 10.5104 15.5298 10.4999 15.5 10.5H14.5C14.4375 10.5 14.385 10.545 14.375 10.605L14.2825 11.2675C14.125 11.33 13.99 11.415 13.86 11.5125L13.2375 11.2625C13.1825 11.24 13.115 11.2625 13.085 11.3175L12.585 12.1825C12.5525 12.2375 12.5675 12.305 12.615 12.3425L13.1425 12.75C13.1325 12.835 13.125 12.9175 13.125 13C13.125 13.0825 13.1325 13.1625 13.1425 13.2425L12.615 13.6575C12.5675 13.695 12.5525 13.7625 12.585 13.8175L13.085 14.6825C13.115 14.7375 13.1825 14.7575 13.2375 14.7375L13.86 14.485C13.99 14.585 14.125 14.67 14.2825 14.7325L14.375 15.395C14.385 15.455 14.4375 15.5 14.5 15.5H15.5C15.5625 15.5 15.615 15.455 15.625 15.395L15.7175 14.7325C15.875 14.6675 16.01 14.585 16.14 14.485L16.7625 14.7375C16.8175 14.7575 16.885 14.7375 16.915 14.6825L17.415 13.8175C17.445 13.7625 17.4325 13.695 17.385 13.6575L16.8575 13.2425Z" fill="currentColor" fill-opacity="0.85"/>
</g>
<defs>
<clipPath id="clip0_3050_441320">
<rect width="6" height="6" fill="white" transform="translate(12 10)"/>
</clipPath>
</defs>
</svg>
