<svg width="18" height="18" viewBox="0 0 18 18" fill="none" xmlns="http://www.w3.org/2000/svg">
<path d="M5.13471 14.7305C5.13471 15.0416 5.38432 15.293 5.6937 15.293H10.3062C10.6156 15.293 10.8652 15.0416 10.8652 14.7305V11.2852H5.13471V14.7305ZM14.4705 2.70703H1.52944C1.09878 2.70703 0.829831 3.17637 1.04604 3.55078L4.93608 10.1602H11.0673L14.9574 3.55078C15.1701 3.17637 14.9011 2.70703 14.4705 2.70703Z" fill="currentColor" fill-opacity="0.85"/>
<g clip-path="url(#clip0_112024_194643)">
<path d="M13.7303 10.6697C13.4374 10.3768 12.9625 10.3768 12.6696 10.6697C12.3767 10.9626 12.3767 11.4374 12.6696 11.7303L13.7303 10.6697ZM16.2696 15.3303C16.5625 15.6232 17.0374 15.6232 17.3303 15.3303C17.6232 15.0374 17.6232 14.5626 17.3303 14.2697L16.2696 15.3303ZM17.3303 11.7303C17.6232 11.4374 17.6232 10.9626 17.3303 10.6697C17.0374 10.3768 16.5625 10.3768 16.2696 10.6697L17.3303 11.7303ZM12.6696 14.2697C12.3767 14.5626 12.3767 15.0374 12.6696 15.3303C12.9625 15.6232 13.4374 15.6232 13.7303 15.3303L12.6696 14.2697ZM12.6696 11.7303L16.2696 15.3303L17.3303 14.2697L13.7303 10.6697L12.6696 11.7303ZM16.2696 10.6697L12.6696 14.2697L13.7303 15.3303L17.3303 11.7303L16.2696 10.6697Z" fill="currentColor" fill-opacity="0.85"/>
</g>
<defs>
<clipPath id="clip0_112024_194643">
<rect width="6" height="6" fill="white" transform="translate(12 10)"/>
</clipPath>
</defs>
</svg>
