<svg width="32" height="32" viewBox="0 0 32 32" fill="none" xmlns="http://www.w3.org/2000/svg">
<path fill-rule="evenodd" clip-rule="evenodd" d="M10.8454 9.97047C10.6095 10.0353 10.3568 10.187 10.0185 10.4557C9.82589 10.6086 9.64429 10.7987 9.46853 11.0224L8.13116 12.7244C7.61254 12.5783 7.06542 12.5001 6.50004 12.5001C6.2374 12.5001 5.9787 12.5169 5.72497 12.5497L7.89591 9.7867C8.14277 9.47252 8.43169 9.16185 8.77476 8.88942C9.17059 8.57509 9.68084 8.21624 10.3157 8.04189C10.9868 7.85757 11.709 7.90161 12.484 8.23604C12.9911 8.45485 13.2248 9.0433 13.006 9.5504C12.7872 10.0575 12.1987 10.2912 11.6916 10.0724C11.3013 9.90394 11.0449 9.91566 10.8454 9.97047ZM10.7814 17.1106C10.1959 15.3053 8.5004 14 6.5 14C4.90511 14 3.50401 14.8297 2.70479 16.081C2.25852 16.7797 1.99988 17.6097 1.99988 18.5002C1.99988 20.9855 4.0146 23.0002 6.49988 23.0002C8.09519 23.0002 9.49661 22.17 10.2957 20.9182C10.6225 20.4062 10.8486 19.8238 10.9461 19.1987L11.7571 18.8743C12.2339 18.6836 12.7658 18.6836 13.2427 18.8743L14.0538 19.1988C14.3894 21.3523 16.2522 23.0002 18.4999 23.0002C20.9852 23.0002 22.9999 20.9855 22.9999 18.5002C22.9999 18.0931 22.9458 17.6987 22.8445 17.3237L27.4535 11.0702C27.6491 10.8049 27.8529 10.5842 28.0723 10.4133C28.3948 10.1623 28.6385 10.0231 28.8644 9.96545C29.0585 9.91587 29.3106 9.90799 29.6916 10.0724C30.1987 10.2912 30.7872 10.0575 31.006 9.55041C31.2248 9.04332 30.9911 8.45486 30.484 8.23605C29.732 7.91157 29.0278 7.85955 28.3695 8.02764C27.743 8.18763 27.2383 8.52796 26.8436 8.83529C26.442 9.148 26.115 9.51535 25.8436 9.88364L21.7707 15.4096C20.9504 14.5417 19.7884 14.0002 18.4999 14.0002C16.4995 14.0002 14.804 15.3054 14.2185 17.1106L13.9854 17.0174C13.0318 16.6359 11.968 16.6359 11.0143 17.0174L10.7814 17.1106Z" fill="#262626"/>
</svg>
