<svg width="13" height="12" viewBox="0 0 13 12" fill="none" xmlns="http://www.w3.org/2000/svg">
<g clip-path="url(#clip0_110014_53804)">
<path d="M11.2076 6.39062C10.8549 6.06525 10.3358 6.03594 9.9831 6.36134L8.97505 7.29134C8.71263 7.53321 8.39638 7.53373 8.21178 7.33268C8.08949 7.19946 8.13776 6.78862 8.17203 6.52801L8.67759 2.6921C8.72274 2.3494 8.45826 2.01833 8.08683 1.97667C7.71546 1.935 7.37778 2.19853 7.33259 2.54116L6.77494 5.55404C6.7458 5.629 6.68329 5.64194 6.67625 5.54105L6.48645 1.625C6.48645 1.2798 6.18317 1 5.80903 1C5.43487 1 5.13158 1.2798 5.13158 1.625L5.11824 5.57036C5.12177 5.61589 5.07945 5.62893 5.07181 5.57692L4.46913 2.49725C4.40263 2.15754 4.05023 1.91237 3.68207 1.97375C3.31386 2.03509 3.06933 2.37971 3.13579 2.71935L3.67245 6.32326C3.673 6.38737 3.64969 6.424 3.61664 6.34181L2.81601 4.36598C2.69075 4.04071 2.30346 3.85114 1.95089 3.96667C1.59835 4.08223 1.41404 4.45911 1.53925 4.78433L2.94279 9.01703C2.95012 9.04038 2.95788 9.06357 2.96584 9.08663L2.96876 9.09534C2.96903 9.09603 2.96937 9.09663 2.96961 9.0973C3.3583 10.2016 4.48253 11 5.80905 11C6.65821 11 7.54024 10.7237 8.21166 10.2484L8.21173 10.2483C8.93694 9.84542 11.2603 7.53971 11.2603 7.53971C11.6131 7.21433 11.5604 6.71607 11.2076 6.39062Z" fill="currentColor"/>
</g>
<defs>
<clipPath id="clip0_110014_53804">
<rect width="10" height="10" fill="white" transform="translate(1.5 1)"/>
</clipPath>
</defs>
</svg>
