<svg width="24" height="24" viewBox="0 0 24 24" fill="none" xmlns="http://www.w3.org/2000/svg">
<path d="M21.9992 11.9817V12.0008C21.9992 17.5233 17.5221 22 11.9992 22C9.70686 22.0036 7.48352 21.2163 5.70448 19.7708L5.72281 19.7858C5.61751 19.7003 5.53135 19.5937 5.4699 19.4728C5.40845 19.3519 5.37308 19.2194 5.36609 19.084C5.3591 18.9486 5.38063 18.8132 5.42931 18.6866C5.47798 18.56 5.5527 18.445 5.64864 18.3492L6.10284 17.895C6.27041 17.7258 6.49443 17.6243 6.73211 17.6099C6.96978 17.5954 7.20445 17.669 7.39128 17.8167L7.38962 17.815C8.69925 18.8572 10.3245 19.423 11.9983 19.4192C13.209 19.4192 14.4013 19.1229 15.4712 18.5563C16.5411 17.9897 17.4561 17.1699 18.1363 16.1684C18.8165 15.167 19.2413 14.0143 19.3736 12.8109C19.506 11.6076 19.3418 10.3902 18.8955 9.26485C18.4491 8.13953 17.7342 7.14052 16.813 6.35496C15.8918 5.56941 14.7924 5.02119 13.6106 4.75813C12.4289 4.49506 11.2007 4.52515 10.0332 4.84577C8.86577 5.16638 7.79451 5.76779 6.91291 6.59751L6.91708 6.59417L8.96391 8.64084C9.05407 8.73109 9.11545 8.84605 9.14027 8.97118C9.16509 9.09631 9.15225 9.22599 9.10336 9.34382C9.05448 9.46165 8.97175 9.56234 8.86563 9.63315C8.75952 9.70397 8.63479 9.74173 8.50721 9.74167H2.64505C2.47397 9.74167 2.3099 9.67371 2.18893 9.55275C2.06796 9.43179 2 9.26773 2 9.09667V3.23501C2.00033 3.10762 2.03833 2.98317 2.10922 2.87732C2.18011 2.77148 2.28072 2.68895 2.3984 2.64014C2.51607 2.59133 2.64556 2.5784 2.77057 2.603C2.89557 2.62759 3.01051 2.68859 3.10092 2.77834L5.09192 4.76917C6.95044 2.98852 9.42603 1.99615 12 2.00001C17.5163 2.00001 21.99 6.46667 22 11.98V11.9808L21.9992 11.9817ZM14.7044 15.1575L15.1003 14.6483C15.1785 14.5483 15.2362 14.4338 15.2701 14.3114C15.304 14.189 15.3134 14.0611 15.2978 13.935C15.2821 13.809 15.2418 13.6873 15.179 13.5769C15.1162 13.4665 15.0322 13.3696 14.9319 13.2917L14.9294 13.29L13.2884 12.0133V7.80667C13.2884 7.2725 12.8551 6.83834 12.32 6.83834H11.675C11.1408 6.83834 10.7066 7.27167 10.7066 7.80667V13.2733L13.3443 15.3242C13.5463 15.4823 13.8028 15.5538 14.0575 15.523C14.3122 15.4923 14.5442 15.3617 14.7027 15.16L14.7044 15.1575Z" fill-opacity="0.85"/>
</svg>
