<svg width="32" height="32" viewBox="0 0 32 32" fill="none" xmlns="http://www.w3.org/2000/svg">
<path d="M9.3335 18.6667C11.5468 18.6667 13.3335 16.88 13.3335 14.6667C13.3335 12.4533 11.5468 10.6667 9.3335 10.6667C7.12016 10.6667 5.3335 12.4533 5.3335 14.6667C5.3335 16.88 7.12016 18.6667 9.3335 18.6667ZM9.3335 13.3333C10.0668 13.3333 10.6668 13.9333 10.6668 14.6667C10.6668 15.4 10.0668 16 9.3335 16C8.60016 16 8.00016 15.4 8.00016 14.6667C8.00016 13.9333 8.60016 13.3333 9.3335 13.3333ZM25.3335 9.33333H14.6668V20H4.00016V6.66666H1.3335V26.6667H4.00016V22.6667H28.0002V26.6667H30.6668V14.6667C30.6668 11.72 28.2802 9.33333 25.3335 9.33333ZM28.0002 20H17.3335V12H25.3335C26.8002 12 28.0002 13.2 28.0002 14.6667V20Z" fill-opacity="0.85"/>
</svg>
