<svg width="36" height="36" viewBox="0 0 36 36" fill="none" xmlns="http://www.w3.org/2000/svg">
    <path fill-rule="evenodd" clip-rule="evenodd" d="M15.8088 26.7855C15.8088 25.6803 21.1268 25.5589 21.1268 26.7694V29.5487C26.2165 28.1888 29.9326 23.5128 29.9509 18.0001C29.9492 12.4839 26.2143 7.82936 21.1268 6.46228V9.58858H15.8044V5.17487C15.78 4.90364 15.8641 4.63381 16.0382 4.42466C16.2122 4.21551 16.462 4.08412 16.7326 4.05936C25.0189 3.30419 31.9995 9.85448 31.9995 18.0042L31.9982 30.974C31.9983 31.1088 31.9719 31.2423 31.9204 31.3669C31.869 31.4914 31.7936 31.6046 31.6984 31.6999C31.6033 31.7952 31.4903 31.8708 31.366 31.9223C31.2417 31.9738 31.1084 32.0002 30.9739 32L16.7295 31.9991C16.1644 31.9991 15.7557 31.4458 15.8088 30.8818V26.7855ZM27.0405 21.8662H4.01791V23.6823H27.0405V21.8662ZM22.92 18.0365C22.9199 17.7347 22.9791 17.4358 23.0943 17.1569C23.2094 16.8781 23.3783 16.6247 23.5913 16.4113C23.8042 16.1979 24.057 16.0286 24.3353 15.9131C24.6135 15.7976 24.9117 15.7382 25.2129 15.7383C25.8212 15.7385 26.4046 15.9807 26.8349 16.4116C27.2652 16.8424 27.5073 17.4268 27.5081 18.0365C27.5068 18.646 27.2645 19.2301 26.8343 19.661C26.4042 20.0919 25.8211 20.3345 25.2129 20.3355C24.6048 20.3347 24.0219 20.0922 23.592 19.6611C23.1621 19.2301 22.9205 18.6458 22.92 18.0365ZM12.3037 15.6582H19.987C20.2941 15.6577 20.5984 15.718 20.8822 15.8354C21.1661 15.9529 21.4241 16.1253 21.6415 16.3428C21.8588 16.5603 22.0312 16.8186 22.1488 17.1029C22.2664 17.3872 22.3269 17.692 22.3268 17.9998C22.3268 19.285 21.2932 20.3248 20.004 20.3351L11.673 20.3338C11.4039 20.332 11.1466 20.2232 10.9576 20.0313C10.7686 19.8394 10.6635 19.5801 10.6652 19.3105C10.667 19.0409 10.7756 18.783 10.9671 18.5936C11.0619 18.4998 11.1743 18.4257 11.2977 18.3754C11.4211 18.3252 11.5532 18.2997 11.6864 18.3006H15.9904L19.4952 17.5674L19.3053 16.66L15.8948 17.374H11.6864C11.172 17.3747 10.679 17.5797 10.3152 17.9442C9.95147 18.3086 9.74675 18.8027 9.74592 19.3181C9.74728 19.6775 9.8491 20.0294 10.0399 20.3338L4 20.3329V16.9317L12.3037 15.6582Z"/>
</svg>
