<svg width="48" height="48" viewBox="0 0 48 48" fill="none" xmlns="http://www.w3.org/2000/svg">
<path fill-rule="evenodd" clip-rule="evenodd" d="M33.0279 16C33.5767 16 34.1013 16.2255 34.479 16.6236L42.2175 24.7818C47.2609 30.0987 47.2609 38.6505 42.2175 43.9675C37.1173 49.3442 28.828 49.3442 23.7278 43.9675C18.661 38.6259 18.8186 30.0738 23.8384 24.7818L31.5769 16.6236C31.9545 16.2255 32.4792 16 33.0279 16ZM33.0279 20.9061L26.7404 27.5346C23.1373 31.3331 23.0738 37.4657 26.6299 41.2147C30.1527 44.9284 35.7926 44.9284 39.3154 41.2147C42.8949 37.441 42.8949 31.3082 39.3154 27.5346L33.0279 20.9061Z"/>
<path fill-rule="evenodd" clip-rule="evenodd" d="M11.9735 0C12.5163 0 13.0357 0.220596 13.4126 0.611153L19.1037 6.50823C22.9655 10.5098 22.9655 16.9672 19.1037 20.9688C15.2033 25.0104 8.85108 25.0104 4.95072 20.9688C1.12183 17.0013 0.949104 10.5435 4.84335 6.50823L10.5344 0.611153C10.9113 0.220597 11.4307 0 11.9735 0ZM11.9735 4.88009L7.72161 9.28593C5.38794 11.7041 5.42996 15.7052 7.82899 18.1911C10.1566 20.603 13.8978 20.603 16.2254 18.1911C18.5915 15.7393 18.5915 11.7377 16.2254 9.28593L11.9735 4.88009Z"/>
</svg>
