<svg width="18" height="18" viewBox="0 0 18 18" fill="none" xmlns="http://www.w3.org/2000/svg">
    <path d="M16.3666 5.16666L17.5416 3.99999L14 0.458328L12.8333 1.63333L14 2.81666L12.8333 3.99999L11.0583 2.22499L9.88331 1.04166L8.70831 2.22499L9.29165 2.81666L1.49998 10.6C1.23592 10.8633 1.06778 11.2075 1.02245 11.5777C0.977131 11.9478 1.05724 12.3224 1.24998 12.6417L2.33331 14.4667L0.458313 16.3667L1.63331 17.5417L3.53331 15.6667L5.35831 16.7583C5.6107 16.9081 5.89817 16.9886 6.19165 16.9917C6.41577 16.9952 6.63829 16.9534 6.84591 16.869C7.05353 16.7845 7.24198 16.659 7.39998 16.5L15.1833 8.71666L15.775 9.29999L16.9583 8.12499L15.775 6.94166L14 5.16666L15.1833 3.99999L16.3666 5.16666ZM14 7.52499L6.21665 15.3167L3.99998 14L2.68331 11.7833L3.39998 11.0583L5.75831 13.4167L6.94165 12.2417L4.58331 9.88333L5.75831 8.70833L8.11665 11.0583L9.29165 9.88333L6.93331 7.52499L8.11665 6.34999L10.475 8.70833L11.65 7.52499L9.29165 5.16666L10.475 3.99999L14 7.52499Z"/>
</svg>
