<svg width="36" height="36" viewBox="0 0 36 36" fill="none" xmlns="http://www.w3.org/2000/svg">
    <path fill-rule="evenodd" clip-rule="evenodd" d="M4 10.5396C4 6.93516 7.06282 4.00024 10.8268 4.00024C14.5896 4.00024 17.6512 6.93459 17.6512 10.5396C17.6512 14.1462 14.5896 17.08 10.8268 17.08C7.06282 17.08 4 14.1462 4 10.5396ZM15.131 22.3204L21.9202 26.0756L21.2482 27.1917L14.4578 23.436L15.1304 22.3209L15.131 22.3204ZM31.9994 32.0002H15.3045V29.3309H21.2357C25.2936 29.3309 28.5955 26.1698 28.5955 22.2815C28.5955 19.8213 27.266 17.601 25.1887 16.334L21.8045 21.9514L21.1022 21.5624L20.1035 23.216L18.3375 22.2398L19.3355 20.5839L18.6314 20.1943L26.6805 6.83577L27.2236 7.13509L28.0333 5.7933L30.1499 6.9643L29.3402 8.30723L29.8548 8.59284L26.5815 14.0234C28.0491 14.8946 29.2603 16.1103 30.1006 17.5553C30.9408 19.0003 31.3821 20.6269 31.3829 22.281C31.3829 25.0628 30.1416 27.5567 28.1782 29.3304H32V31.9997L31.9994 32.0002ZM11.8115 7.66849C12.0044 7.59196 12.2112 7.55263 12.42 7.55273C12.8331 7.56535 13.2249 7.73146 13.5125 8.01591C13.8001 8.30037 13.9609 8.68085 13.9609 9.07687C13.9609 9.47288 13.8001 9.85337 13.5125 10.1378C13.2249 10.4223 12.8331 10.5884 12.42 10.601C11.9984 10.6 11.5944 10.4389 11.2965 10.1531C10.9987 9.86728 10.8312 9.48 10.8307 9.07609C10.8305 8.87605 10.8715 8.67793 10.9513 8.49306C11.0311 8.3082 11.1481 8.14022 11.2957 7.99873C11.4433 7.85724 11.6186 7.74502 11.8115 7.66849ZM9.72448 12.5682C10.018 12.2825 10.4161 12.1221 10.8312 12.1221C11.2463 12.1221 11.6443 12.2825 11.9379 12.5682C12.2314 12.8539 12.3963 13.2413 12.3963 13.6453C12.3963 14.0493 12.2314 14.4367 11.9379 14.7224C11.6443 15.0081 11.2463 15.1686 10.8312 15.1686C10.4161 15.1686 10.018 15.0081 9.72448 14.7224C9.43097 14.4367 9.26607 14.0493 9.26607 13.6453C9.26607 13.2413 9.43097 12.8539 9.72448 12.5682ZM7.12168 9.17726C7.31436 9.10376 7.52002 9.06932 7.72642 9.076C8.13472 9.076 8.5263 9.2364 8.81501 9.52191C9.10372 9.80743 9.26591 10.1947 9.26591 10.5984C9.26591 11.0022 9.10372 11.3895 8.81501 11.675C8.5263 11.9605 8.13472 12.1209 7.72642 12.1209C7.52002 12.1276 7.31436 12.0931 7.12168 12.0196C6.929 11.9461 6.75323 11.835 6.60483 11.693C6.45643 11.551 6.33843 11.3809 6.25784 11.1929C6.17725 11.0048 6.13572 10.8027 6.13572 10.5984C6.13572 10.3942 6.17725 10.1921 6.25784 10.004C6.33843 9.81598 6.45643 9.64589 6.60483 9.50386C6.75323 9.36183 6.929 9.25076 7.12168 9.17726ZM10.8272 4.60448C7.41202 4.60448 4.63181 7.26808 4.63181 10.5394C4.63181 13.8114 7.41202 16.4744 10.8278 16.4744C14.2412 16.4744 17.0214 13.812 17.0214 10.5394C17.0214 7.26865 14.2412 4.60448 10.8278 4.60448H10.8272ZM10.8326 15.6884C7.86992 15.6884 5.45997 13.3813 5.45997 10.5434C5.45997 7.70449 7.86992 5.39448 10.8326 5.39448C13.794 5.39448 16.2034 7.70506 16.2034 10.5434C16.2034 13.3813 13.794 15.6884 10.8326 15.6884Z"/>
</svg>
