<svg width="32" height="32" viewBox="0 0 32 32" fill="none" xmlns="http://www.w3.org/2000/svg">
<path d="M12 21.3333H20V24H12V21.3333ZM17.3333 12H14.6667V14.6667H12V17.3333H14.6667V20H17.3333V17.3333H20V14.6667H17.3333V12Z" fill-opacity="0.85"/>
<path d="M16.0002 2.66667C8.8935 8.73334 5.3335 13.9733 5.3335 18.4C5.3335 25.04 10.4002 29.3333 16.0002 29.3333C21.6002 29.3333 26.6668 25.04 26.6668 18.4C26.6668 13.9733 23.1068 8.73334 16.0002 2.66667ZM16.0002 26.6667C11.5335 26.6667 8.00016 23.24 8.00016 18.4C8.00016 15.28 10.6002 11.1467 16.0002 6.21334C21.4002 11.1467 24.0002 15.2667 24.0002 18.4C24.0002 23.24 20.4668 26.6667 16.0002 26.6667Z" fill-opacity="0.85"/>
</svg>
