<svg width="1920" height="1080" viewBox="0 0 1920 1080" fill="none" xmlns="http://www.w3.org/2000/svg">
    <g opacity="0.05">
    <path d="M1309.84 1040.08C1191.68 1040.08 1095.88 943.577 1095.88 824.521V255.466C1095.88 136.423 1191.68 39.9167 1309.84 39.9167C1428.02 39.9167 1523.8 136.423 1523.8 255.466V824.521C1523.8 943.577 1428.02 1040.08 1309.84 1040.08Z" fill="#4BBEFF"/>
    <path d="M813.467 539.996C813.467 420.939 909.256 324.433 1027.43 324.433H1592.25C1710.41 324.433 1806.21 420.939 1806.21 539.996C1806.21 659.039 1710.41 755.558 1592.25 755.558H1027.43C909.256 755.558 813.467 659.039 813.467 539.996Z" fill="#4BBEFF"/>
    <path d="M1095.88 755.563H1523.8V324.435H1095.88V755.563Z" fill="#00A0FF"/>
    <path d="M1915.01 539.995L2045.5 408.518C2129.05 324.337 2129.05 187.848 2045.51 103.667C1961.94 19.4878 1826.48 19.4878 1742.91 103.667L1309.83 539.995L1742.91 976.324C1826.48 1060.5 1961.94 1060.5 2045.51 976.324C2129.05 892.143 2129.05 755.653 2045.5 671.474L1915.01 539.995Z" fill="#FE0074"/>
    <path d="M1592.25 324.433H1523.8L1309.83 539.995L1523.8 755.56H1592.25C1710.41 755.56 1806.2 659.054 1806.2 539.995C1806.2 420.939 1710.41 324.433 1592.25 324.433Z" fill="#CD007C"/>
    </g>
    <g opacity="0.03">
    <path d="M-88.0884 1334.52C-169.847 1334.52 -236.133 1267.75 -236.133 1185.37V791.624C-236.133 709.254 -169.847 642.479 -88.0884 642.479C-6.3226 642.479 59.9561 709.254 59.9561 791.624V1185.37C59.9561 1267.75 -6.3226 1334.52 -88.0884 1334.52Z" fill="#4BBEFF"/>
    <path d="M-431.545 988.497C-431.545 906.119 -365.266 839.344 -283.5 839.344H107.315C189.072 839.344 255.36 906.119 255.36 988.497C255.36 1070.87 189.072 1137.65 107.315 1137.65H-283.5C-365.266 1137.65 -431.545 1070.87 -431.545 988.497Z" fill="#4BBEFF"/>
    <path d="M-236.138 1137.65H59.9521V839.345H-236.138V1137.65Z" fill="#00A0FF"/>
    <path d="M330.642 988.497L420.929 897.524C478.743 839.277 478.743 744.836 420.938 686.589C363.117 628.344 269.387 628.344 211.564 686.589L-88.0981 988.497L211.564 1290.4C269.387 1348.65 363.117 1348.65 420.938 1290.4C478.743 1232.16 478.743 1137.72 420.929 1079.47L330.642 988.497Z" fill="#FE0074"/>
    <path d="M107.317 839.343H59.9501L-88.0957 988.497L59.9501 1137.65H107.317C189.073 1137.65 255.352 1070.88 255.352 988.497C255.352 906.118 189.073 839.343 107.317 839.343Z" fill="#CD007C"/>
    </g>
    <g opacity="0.05">
    <path d="M486.539 -273.792C580.766 -273.792 657.162 -196.833 657.162 -101.891L657.162 351.901C657.162 446.833 580.766 523.792 486.539 523.792C392.304 523.792 315.917 446.833 315.917 351.901L315.917 -101.891C315.917 -196.833 392.304 -273.792 486.539 -273.792Z" fill="#4BBEFF"/>
    <path d="M882.375 125.003C882.375 219.945 805.989 296.904 711.753 296.904L261.335 296.904C167.109 296.904 90.7125 219.945 90.7125 125.003C90.7125 30.0721 167.109 -46.8971 261.335 -46.8971L711.753 -46.8971C805.989 -46.8971 882.375 30.0721 882.375 125.003Z" fill="#4BBEFF"/>
    <path d="M657.167 -46.9006L315.921 -46.9006L315.921 296.902L657.167 296.902V-46.9006Z" fill="#00A0FF"/>
    <path d="M3.94873 125.004L-100.108 229.85C-166.739 296.98 -166.739 405.824 -100.118 472.954C-33.4784 540.083 74.546 540.083 141.187 472.954L486.55 125.004L141.187 -222.947C74.546 -290.077 -33.4784 -290.077 -100.118 -222.947C-166.739 -155.816 -166.739 -46.9725 -100.108 20.1559L3.94873 125.004Z" fill="#FE0074"/>
    <path d="M261.333 296.904H315.923L486.547 125.004L315.923 -46.8985L261.333 -46.8985C167.108 -46.8985 90.7212 30.0604 90.7212 125.004C90.7212 219.945 167.108 296.904 261.333 296.904Z" fill="#CD007C"/>
    </g>
    </svg>
