<svg width="35" height="36" viewBox="0 0 35 36" fill="none" xmlns="http://www.w3.org/2000/svg">
    <path d="M13.7532 30.3958C10.8243 30.3958 8.44971 28.0037 8.44971 25.0526V10.9471C8.44971 7.99632 10.8243 5.60417 13.7532 5.60417C16.6824 5.60417 19.0568 7.99632 19.0568 10.9471V25.0526C19.0568 28.0037 16.6824 30.3958 13.7532 30.3958Z" fill="#4BBEFF"/>
    <path d="M1.44922 17.9999C1.44922 15.0488 3.82358 12.6566 6.75276 12.6566H20.7533C23.6822 12.6566 26.0569 15.0488 26.0569 17.9999C26.0569 20.9507 23.6822 23.3432 20.7533 23.3432H6.75276C3.82358 23.3432 1.44922 20.9507 1.44922 17.9999Z" fill="#4BBEFF"/>
    <path d="M8.44946 23.3433H19.0566V12.6567H8.44946V23.3433Z" fill="#00A0FF"/>
    <path d="M28.7537 17.9999L31.9882 14.7409C34.0593 12.6543 34.0593 9.27101 31.9885 7.18437C29.9171 5.09778 26.5593 5.09778 24.4879 7.18437L13.7528 17.9999L24.4879 28.8154C26.5593 30.902 29.9171 30.902 31.9885 28.8154C34.0593 26.7288 34.0593 23.3455 31.9882 21.2589L28.7537 17.9999Z" fill="#FE0074"/>
    <path d="M20.7534 12.6566H19.0565L13.7529 17.9999L19.0565 23.3432H20.7534C23.6822 23.3432 26.0566 20.951 26.0566 17.9999C26.0566 15.0488 23.6822 12.6566 20.7534 12.6566Z" fill="#CD007C"/>
</svg>
