<svg width="48" height="48" viewBox="0 0 48 48" fill="none" xmlns="http://www.w3.org/2000/svg">
<g clip-path="url(#clip0_112_12945)">
<path d="M24 27.432C22.554 29.61 20.402 31.308 17.794 32.176L12.632 33.896C12.422 33.966 12.208 34 12 34C11.162 34 10.382 33.47 10.104 32.632C9.754 31.584 10.32 30.452 11.368 30.102L16.53 28.382C19.802 27.292 22 24.242 22 20.792V2C22 0.896 22.894 0 24 0C25.106 0 26 0.896 26 2V20.792C26 24.242 28.2 27.292 31.47 28.382L36.632 30.102C37.678 30.452 38.246 31.584 37.896 32.632C37.616 33.47 36.838 34 36 34C35.792 34 35.578 33.966 35.368 33.896L30.206 32.176C27.598 31.308 25.446 29.608 24 27.432ZM20 36C18.894 36 18 36.896 18 38C18 40.038 16.624 41.826 14.654 42.35L9.264 43.79C8.846 43.93 8.448 43.94 7.99 44C6.948 44 5.918 43.57 5.166 42.818C4.414 42.068 4 41.066 4 39.994C4 37.492 4.286 34.99 4.848 32.554L8.16 18.198C9.002 14.548 12.206 11.998 15.954 11.998C17.06 11.998 17.954 11.102 17.954 9.998C17.954 8.894 17.06 7.998 15.954 7.998C10.332 7.998 5.524 11.824 4.26 17.3L0.95 31.656C0.322 34.384 0 37.19 0 39.994C0 42.134 0.83 44.142 2.34 45.648C3.836 47.144 5.894 48 7.992 48H8.004C8.858 48 9.71 47.86 10.412 47.62L15.684 46.216C19.402 45.226 22 41.848 22 38C22 36.896 21.106 36 20 36ZM47.05 31.658L43.738 17.302C42.474 11.826 37.666 8 32.044 8C30.938 8 30.044 8.896 30.044 10C30.044 11.104 30.938 12 32.044 12C35.792 12 38.998 14.55 39.838 18.2L43.15 32.556C43.712 34.99 43.998 37.492 43.998 39.994C43.998 41.064 43.584 42.068 42.832 42.818C42.08 43.568 41.05 44 40.008 44C39.496 43.98 39.152 43.93 38.618 43.754L33.342 42.35C31.374 41.826 29.998 40.036 29.998 38C29.998 36.896 29.104 36 27.998 36C26.892 36 25.998 36.896 25.998 38C25.998 41.848 28.596 45.226 32.312 46.216L37.468 47.586C38.292 47.862 39.212 48.054 40.006 48.002C42.104 48.002 44.162 47.146 45.658 45.65C47.168 44.144 47.998 42.136 47.998 39.996C47.998 37.192 47.68 34.386 47.05 31.658Z" fill="black"/>
</g>
<defs>
<clipPath id="clip0_112_12945">
<rect width="48" height="48" fill="white"/>
</clipPath>
</defs>
</svg>
