<svg width="32" height="32" viewBox="0 0 32 32" fill="none" xmlns="http://www.w3.org/2000/svg">
<circle cx="16" cy="16" r="15" fill="#1890FF"/>
<path d="M21.3181 11.332C21.1818 11.0584 20.909 10.7848 20.6363 10.648C20.2272 10.5112 19.9545 10.5112 19.5454 10.648C19.409 10.648 19.2727 10.7848 19.1363 10.9216L16 14.0678L12.8636 10.9216C12.7272 10.7848 12.5909 10.648 12.4545 10.648C12.0454 10.5112 11.7727 10.5112 11.3636 10.648C11.0909 10.7848 10.8181 11.0584 10.6818 11.332C10.5454 11.4688 10.5454 11.7423 10.5454 11.8791V20.0866C10.5454 20.9073 11.0909 21.4545 11.909 21.4545C12.7272 21.4545 13.2727 20.9073 13.2727 20.0866V15.1621L15.0454 16.9404C15.3181 17.214 15.5909 17.3508 16 17.3508C16.409 17.3508 16.6818 17.214 16.9545 16.9404L18.7272 15.1621V20.0866C18.7272 20.9073 19.2727 21.4545 20.0909 21.4545C20.909 21.4545 21.4545 20.9073 21.4545 20.0866V11.8791C21.4545 11.7423 21.4545 11.4688 21.3181 11.332Z" fill="white"/>
</svg>
