<svg width="32" height="32" viewBox="0 0 32 32" fill="none" xmlns="http://www.w3.org/2000/svg">
<path d="M5.32129 17.8635C5.32116 17.5852 5.37592 17.3096 5.48245 17.0524C5.58897 16.7953 5.74516 16.5617 5.94208 16.365C6.139 16.1683 6.37278 16.0124 6.63003 15.9062C6.88729 15.8 7.16297 15.7455 7.44129 15.746C7.71964 15.7456 7.99534 15.8001 8.25262 15.9063C8.5099 16.0125 8.74372 16.1685 8.9407 16.3651C9.13769 16.5618 9.29398 16.7953 9.40064 17.0524C9.50729 17.3095 9.56222 17.5852 9.56229 17.8635C9.56229 18.4259 9.33888 18.9653 8.94121 19.3629C8.54354 19.7606 8.00418 19.984 7.44179 19.984C6.8794 19.984 6.34004 19.7606 5.94237 19.3629C5.5447 18.9653 5.32129 18.4259 5.32129 17.8635Z"  fill-opacity="0.85"/>
<path d="M25.7985 16.5665C26.731 16.5665 27.484 17.2975 27.492 18.223L27.4955 22.695H10.479V16.571L25.7985 16.5665Z"  fill-opacity="0.85"/>
<path d="M8.5194 22.6915C9.0949 22.6915 9.5624 22.224 9.5624 21.6485C9.5624 21.073 9.0949 20.6055 8.5194 20.6055H5.5044C5.36746 20.6054 5.23185 20.6324 5.10534 20.6848C4.97882 20.7372 4.86388 20.814 4.7671 20.9109C4.67031 21.0078 4.59358 21.1228 4.5413 21.2494C4.48902 21.3759 4.46221 21.5116 4.4624 21.6485C4.4624 22.224 4.9264 22.6915 5.5044 22.6915H8.5194Z"  fill-opacity="0.85"/>
<path d="M28.5044 27.0895V31.753H31.2659V16.964C31.2661 16.783 31.2306 16.6036 31.1615 16.4363C31.0923 16.269 30.9909 16.1169 30.863 15.9888C30.735 15.8607 30.5831 15.7591 30.4159 15.6897C30.2487 15.6203 30.0694 15.5846 29.8884 15.5845C29.5219 15.584 29.1703 15.729 28.9107 15.9877C28.6512 16.2464 28.505 16.5976 28.5044 16.964V23.7515H3.70987V14.174C3.70987 13.4125 3.04587 12.793 2.28237 12.793V12.794C1.52138 12.794 0.921875 13.4125 0.921875 14.1735V31.7525H3.70937V27.089H28.5044V27.0895Z"  fill-opacity="0.85"/>
<path d="M19.7542 0.0699997C20.6377 0.0699997 22.0847 0.4415 22.8897 1.3225L21.8047 3.4065C21.5629 3.09277 21.2523 2.8388 20.8968 2.6642C20.5412 2.4896 20.1503 2.39904 19.7542 2.3995C18.9297 2.3995 18.1962 2.7845 17.7217 3.386L16.6152 1.3685C17.5467 0.4365 18.8347 0.0699997 19.7542 0.0699997ZM19.4417 2.17H20.0607V1.5505H20.6802V0.9325H20.0607V0.3135H19.4417V0.9325H18.8232V1.5505H19.4417V2.17Z"  fill-opacity="0.85"/>
<path d="M21.7408 5.124C21.7408 5.65211 21.531 6.1586 21.1576 6.53203C20.7841 6.90546 20.2777 7.11525 19.7496 7.11525C19.2214 7.11525 18.715 6.90546 18.3415 6.53203C17.9681 6.1586 17.7583 5.65211 17.7583 5.124C17.7583 4.59589 17.9681 4.08941 18.3415 3.71598C18.715 3.34254 19.2214 3.13275 19.7496 3.13275C20.2777 3.13275 20.7841 3.34254 21.1576 3.71598C21.531 4.08941 21.7408 4.59589 21.7408 5.124Z"  fill-opacity="0.85"/>
<path d="M17.8348 7.6825C16.4428 7.69 15.6363 8.8195 15.4548 9.4575L13.7588 15.024H15.4753L16.7253 10.753H17.6148L16.3683 15.023H23.1218L21.8843 10.753H22.7733L24.0563 15.024H25.7473L24.0448 9.4575C23.8638 8.8275 23.0743 7.7195 21.7128 7.6855L17.8348 7.6825Z"  fill-opacity="0.85"/>
<path d="M5.14631 8.9625C2.70231 8.9625 0.716309 6.9755 0.716309 4.5315C0.716309 2.087 2.70181 0.0994987 5.14631 0.0994987C7.58931 0.0994987 9.57831 2.0875 9.57831 4.5315C9.57831 6.9755 7.58881 8.9625 5.14631 8.9625ZM5.14481 7.8655C6.98381 7.8655 8.48081 6.37 8.48081 4.5305C8.48081 2.693 6.98431 1.195 5.14481 1.195C3.30681 1.195 1.81231 2.6925 1.81231 4.5305C1.81231 6.3705 3.30681 7.8655 5.14481 7.8655Z"  fill-opacity="0.85"/>
<path d="M5.16878 5.1165C5.11784 5.13987 5.06181 5.14993 5.00593 5.14574C4.95005 5.14154 4.89615 5.12322 4.84928 5.0925C4.8096 5.06697 4.77586 5.03323 4.75033 4.99356C4.7248 4.95388 4.70807 4.90919 4.70128 4.8625L4.69678 2.287C4.70011 2.20085 4.73669 2.11934 4.79882 2.05957C4.86095 1.9998 4.94381 1.96641 5.03003 1.96641C5.11624 1.96641 5.19911 1.9998 5.26124 2.05957C5.32337 2.11934 5.35994 2.20085 5.36328 2.287V4.285L7.07128 3.4805C7.15034 3.44796 7.23888 3.44707 7.31858 3.47802C7.39828 3.50898 7.46301 3.56939 7.49939 3.64677C7.53576 3.72414 7.54098 3.81254 7.51397 3.89365C7.48695 3.97477 7.42978 4.04238 7.35428 4.0825L5.16828 5.116L5.16878 5.1165Z"  fill-opacity="0.85"/>
</svg>
