<svg width="32" height="32" viewBox="0 0 32 32" fill="none" xmlns="http://www.w3.org/2000/svg">
<path fill-rule="evenodd" clip-rule="evenodd" d="M7 6C7 4.34315 8.34315 3 10 3H22.2C23.8569 3 25.2 4.34315 25.2 6V26C25.2 27.6569 23.8569 29 22.2 29H10C8.34314 29 7 27.6569 7 26V6ZM9.6 6.6C9.6 6.04771 10.0477 5.6 10.6 5.6H21.6C22.1523 5.6 22.6 6.04772 22.6 6.6V20.2C22.6 20.7523 22.1523 21.2 21.6 21.2H10.6C10.0477 21.2 9.6 20.7523 9.6 20.2V6.6ZM14.8 23.8C14.082 23.8 13.5 24.382 13.5 25.1C13.5 25.818 14.082 26.4 14.8 26.4H17.4C18.118 26.4 18.7 25.818 18.7 25.1C18.7 24.382 18.118 23.8 17.4 23.8H14.8Z" fill="#262626"/>
</svg>
