<svg width="48" height="48" viewBox="0 0 48 48" fill="none" xmlns="http://www.w3.org/2000/svg">
<path fill-rule="evenodd" clip-rule="evenodd" d="M30 15C29.1999 15 28.4769 15.4768 28.1617 16.2122L24 25.9228L22.8383 23.2122C22.5231 22.4768 21.8001 22 21 22H6V26H19.6812L22.1617 31.7878C22.4769 32.5232 23.1999 33 24 33C24.8001 33 25.5231 32.5232 25.8383 31.7878L30 22.0772L31.1617 24.7878C31.4769 25.5232 32.1999 26 33 26H42V22H34.3188L31.8383 16.2122C31.5231 15.4768 30.8001 15 30 15Z" fill="#262626"/>
<path fill-rule="evenodd" clip-rule="evenodd" d="M20.7144 6H27.2856C29.4532 5.99998 31.2015 5.99996 32.6173 6.11564C34.0749 6.23473 35.3553 6.48636 36.5399 7.08993C38.4215 8.04867 39.9513 9.57847 40.9101 11.4601C41.5136 12.6447 41.7653 13.9251 41.8844 15.3828C42 16.7985 42 18.5468 42 20.7143V27.2857C42 29.4532 42 31.2015 41.8844 32.6172C41.7653 34.0749 41.5136 35.3553 40.9101 36.5399C39.9513 38.4215 38.4215 39.9513 36.5399 40.9101C35.3553 41.5136 34.0749 41.7653 32.6173 41.8844C31.2015 42 29.4532 42 27.2857 42H20.7143C18.5468 42 16.7985 42 15.3828 41.8844C13.9251 41.7653 12.6447 41.5136 11.4601 40.9101C9.57847 39.9513 8.04867 38.4215 7.08994 36.5399C6.48636 35.3553 6.23474 34.0749 6.11564 32.6172C5.99996 31.2015 5.99998 29.4532 6 27.2856V20.7144C5.99998 18.5468 5.99996 16.7985 6.11564 15.3828C6.23474 13.9251 6.48636 12.6447 7.08994 11.4601C8.04867 9.57847 9.57847 8.04867 11.4601 7.08993C12.6447 6.48636 13.9251 6.23473 15.3828 6.11564C16.7985 5.99996 18.5468 5.99998 20.7144 6ZM15.7085 10.1024C14.4981 10.2012 13.8028 10.3856 13.2761 10.654C12.1471 11.2292 11.2292 12.1471 10.654 13.2761C10.3856 13.8028 10.2012 14.4981 10.1024 15.7085C10.0016 16.9422 10 18.5268 10 20.8V27.2C10 29.4732 10.0016 31.0578 10.1024 32.2915C10.2012 33.5019 10.3856 34.1972 10.654 34.7239C11.2292 35.8529 12.1471 36.7708 13.2761 37.346C13.8028 37.6144 14.4981 37.7988 15.7085 37.8976C16.9422 37.9984 18.5268 38 20.8 38H27.2C29.4732 38 31.0578 37.9984 32.2915 37.8976C33.5019 37.7988 34.1972 37.6144 34.7239 37.346C35.8529 36.7708 36.7708 35.8529 37.346 34.7239C37.6144 34.1972 37.7988 33.5019 37.8976 32.2915C37.9984 31.0578 38 29.4732 38 27.2V20.8C38 18.5268 37.9984 16.9422 37.8976 15.7085C37.7988 14.4981 37.6144 13.8028 37.346 13.2761C36.7708 12.1471 35.8529 11.2292 34.7239 10.654C34.1972 10.3856 33.5019 10.2012 32.2915 10.1024C31.0578 10.0016 29.4732 10 27.2 10H20.8C18.5268 10 16.9422 10.0016 15.7085 10.1024Z" fill="#262626"/>
<line x1="33" y1="29" x2="33" y2="35" stroke="black" stroke-width="2"/>
<line x1="30" y1="32" x2="36" y2="32" stroke="black" stroke-width="2"/>
</svg>
