<svg width="32" height="32" viewBox="0 0 32 32" fill="none" xmlns="http://www.w3.org/2000/svg">
<path fill-rule="evenodd" clip-rule="evenodd" d="M5 4C4.73478 4 4.48043 4.11732 4.29289 4.32616C4.10536 4.535 4 4.81824 4 5.11359V22.8864C4 23.1818 4.10536 23.465 4.29289 23.6738C4.48043 23.8827 4.73478 24 5 24H27C27.2652 24 27.5196 23.8827 27.7071 23.6738C27.8946 23.465 28 23.1818 28 22.8864V5.11359C28 4.81824 27.8946 4.535 27.7071 4.32616C27.5196 4.11732 27.2652 4 27 4H5ZM11.504 13.6648H5.846V15.8775H12.679L14.298 12.7071L16.189 19.9989L20.619 13.7261H25.149C25.4139 13.7275 25.6685 13.6119 25.8569 13.4046C26.0453 13.1973 26.1521 12.9152 26.154 12.6203C26.1524 12.3251 26.0457 12.0427 25.8572 11.8352C25.6688 11.6276 25.414 11.5119 25.149 11.5134H19.636L17.034 15.1993L14.907 7L11.504 13.6648Z"/>
<path fill-rule="evenodd" clip-rule="evenodd" d="M5 12.5512H10.922L14.72 5.11359H5V12.5512ZM5 16.9911V22.8853H27V13.4755C26.8461 13.8802 26.5886 14.2254 26.2596 14.468C25.9305 14.7106 25.5446 14.8399 25.15 14.8396H21.104L15.77 22.3964L13.995 15.5535L13.261 16.9922H5V16.9911ZM14.298 12.7071L16.189 19.9989L20.619 13.7261H25.149C25.4139 13.7275 25.6685 13.6119 25.8569 13.4046C26.0453 13.1973 26.1521 12.9152 26.154 12.6203C26.1524 12.3251 26.0457 12.0427 25.8572 11.8352C25.6688 11.6276 25.414 11.5119 25.149 11.5134H19.636L17.034 15.1993L14.907 7L11.504 13.6648H5.846V15.8775H12.679L14.298 12.7071ZM17.453 12.8029L19.15 10.3998H25.15C25.977 10.3998 26.696 10.9588 27 11.7639V5.11359H15.459L17.453 12.8029ZM4 5.11359C4 4.81824 4.10536 4.535 4.29289 4.32616C4.48043 4.11732 4.73478 4 5 4H27C27.2652 4 27.5196 4.11732 27.7071 4.32616C27.8946 4.535 28 4.81824 28 5.11359V22.8864C28 23.1818 27.8946 23.465 27.7071 23.6738C27.5196 23.8827 27.2652 24 27 24H5C4.73478 24 4.48043 23.8827 4.29289 23.6738C4.10536 23.465 4 23.1818 4 22.8864V5.11359Z" fill-opacity="0.85"/>
<path fill-rule="evenodd" clip-rule="evenodd" d="M23 28H9V26H23V28Z"/>
<path fill-rule="evenodd" clip-rule="evenodd" d="M13 28V23H19V28H13Z"/>
</svg>
