<svg width="32" height="32" viewBox="0 0 32 32" fill="none" xmlns="http://www.w3.org/2000/svg">
<path d="M15.0353 8.43994V23.5599H11.9153L5.79531 14.6799V23.5599H2.31531V8.43994H5.43531L11.5553 17.3199V8.43994H15.0353Z" fill="#262626"/>
<path d="M27.2847 15.5199C27.7327 15.7279 28.1327 15.9999 28.4847 16.3359C28.7887 16.6239 29.0607 16.9919 29.3007 17.4399C29.5567 17.8879 29.6847 18.4479 29.6847 19.1199C29.6847 19.7279 29.5647 20.3039 29.3247 20.8479C29.0847 21.3759 28.7407 21.8399 28.2927 22.2399C27.8607 22.6399 27.3407 22.9599 26.7327 23.1999C26.1407 23.4399 25.4847 23.5599 24.7647 23.5599H17.9247V8.43994H24.4047C25.0927 8.43994 25.7247 8.55194 26.3007 8.77594C26.8767 8.99994 27.3647 9.30394 27.7647 9.68794C28.1807 10.0719 28.5007 10.5199 28.7247 11.0319C28.9647 11.5279 29.0847 12.0639 29.0847 12.6399C29.0847 13.1519 28.9887 13.5919 28.7967 13.9599C28.6047 14.3279 28.3967 14.6239 28.1727 14.8479C27.9007 15.1199 27.6047 15.3439 27.2847 15.5199ZM21.4047 14.4399H24.0447C24.5247 14.4399 24.9247 14.2879 25.2447 13.9839C25.5647 13.6639 25.7247 13.2959 25.7247 12.8799C25.7247 12.4639 25.5647 12.1039 25.2447 11.7999C24.9247 11.4799 24.5247 11.3199 24.0447 11.3199H21.4047V14.4399ZM24.4047 20.6799C24.9487 20.6799 25.4047 20.5039 25.7727 20.1519C26.1407 19.7839 26.3247 19.3599 26.3247 18.8799C26.3247 18.3999 26.1407 17.9839 25.7727 17.6319C25.4047 17.2639 24.9487 17.0799 24.4047 17.0799H21.4047V20.6799H24.4047Z" fill="#262626"/>
</svg>
