<svg width="32" height="32" viewBox="0 0 32 32" fill="none" xmlns="http://www.w3.org/2000/svg">
<path d="M27.7867 5.62666C27.72 5.46666 27.64 5.31999 27.5467 5.17333C27.36 4.89333 27.1067 4.63999 26.8267 4.45333C26.68 4.35999 26.5333 4.27999 26.3733 4.21333C26.0533 4.07999 25.7067 3.99999 25.3333 3.99999H24V1.33333H21.3333V3.99999H10.6667V1.33333H8V3.99999H6.66667C6.10667 3.99999 5.6 4.17333 5.17333 4.45333C4.89333 4.63999 4.64 4.89333 4.45333 5.17333C4.36 5.31999 4.28 5.46666 4.21333 5.62666C4.08 5.94666 4 6.29333 4 6.66666V25.3333C4 26.0406 4.28095 26.7188 4.78105 27.2189C5.28115 27.719 5.95942 28 6.66667 28H25.3333C25.7067 28 26.0533 27.92 26.3733 27.7867C26.5333 27.72 26.68 27.64 26.8267 27.5467C27.1067 27.36 27.36 27.1067 27.5467 26.8267C27.8267 26.4 28 25.88 28 25.3333V6.66666C28 6.29333 27.92 5.94666 27.7867 5.62666ZM6.66667 25.3333V6.66666H25.3333V25.3333H6.66667ZM16 17.1733C13.2933 17.1733 8 18.6133 8 21.9467V24H24V21.96C24 18.6133 18.7067 17.1733 16 17.1733ZM11.08 21.3333C12 20.5867 14.2533 19.84 16 19.84C17.7467 19.84 20.0133 20.5867 20.92 21.3333H11.08ZM16 16C18.2 16 20 14.2 20 12C20 9.79999 18.2 7.99999 16 7.99999C13.8 7.99999 12 9.79999 12 12C12 14.2 13.8 16 16 16ZM16 10.6667C16.7333 10.6667 17.3333 11.2667 17.3333 12C17.3333 12.7333 16.7333 13.3333 16 13.3333C15.2667 13.3333 14.6667 12.7333 14.6667 12C14.6667 11.2667 15.2667 10.6667 16 10.6667Z" fill-opacity="0.85"/>
</svg>
