<svg width="32" height="32" viewBox="0 0 32 32" fill="none" xmlns="http://www.w3.org/2000/svg">
<path d="M27.3132 26.0282L26.67 26.6713C24.6833 28.658 17.3368 29.3381 10.0035 22.0048C2.67012 14.6715 3.33666 7.33801 5.33666 5.33801L5.9914 4.68327C7.03256 3.64211 8.76535 3.81436 9.58212 5.03949L12.2757 9.0797C12.8927 10.0052 12.7706 11.2375 11.9841 12.024L10.5861 13.422C10.2289 13.7791 10.1093 14.3061 10.3424 14.7542C10.7674 15.5709 11.6538 16.9885 13.3368 18.6715C15.0198 20.3545 16.4372 21.2408 17.2538 21.6657C17.7019 21.8988 18.2289 21.7792 18.586 21.4221L19.9841 20.0241C20.7705 19.2376 22.0028 19.1156 22.9283 19.7325L26.9549 22.4169C28.1871 23.2383 28.3603 24.981 27.3132 26.0282Z" fill="#12131A"/>
</svg>
