<svg width="41" height="41" viewBox="0 0 41 41" fill="none" xmlns="http://www.w3.org/2000/svg">
<circle cx="20.5" cy="20.5" r="20" fill="transparent"/>
<path fill-rule="evenodd" clip-rule="evenodd" d="M0.5 20.5C0.5 9.45431 9.45431 0.5 20.5 0.5C31.5457 0.5 40.5 9.45431 40.5 20.5C40.5 31.5457 31.5457 40.5 20.5 40.5C9.45431 40.5 0.5 31.5457 0.5 20.5ZM16.0338 16.2312C16.9899 16.7843 18.2134 16.4576 18.7665 15.5015C20.6805 12.7308 24.3802 16.42 21.3468 18.2233C20.8016 18.5474 20.0885 19.087 19.5462 19.7479C19.0327 20.3737 18.561 21.2343 18.5056 22.2921C18.4985 22.3604 18.4949 22.4298 18.4949 22.5C18.4949 23.6046 19.3903 24.5 20.4949 24.5C22.0194 24.5 22.3096 23.6901 22.6024 22.8728C22.7908 22.347 22.9803 21.8182 23.5001 21.5C25.1533 20.488 26.5001 18.6955 26.5001 16.5C26.5001 13.1863 23.8138 10.5 20.5001 10.5C18.2768 10.5 16.3384 11.7104 15.304 13.4985C14.7509 14.4547 15.0777 15.6781 16.0338 16.2312ZM18.4949 28.5C18.4949 27.3954 19.3903 26.5 20.4949 26.5C21.5994 26.5 22.4949 27.3954 22.4949 28.5C22.4949 29.6046 21.5994 30.5 20.4949 30.5C19.3903 30.5 18.4949 29.6046 18.4949 28.5Z"/>
</svg>
