<?xml version="1.0" encoding="utf-8"?>
<!-- Generator: Adobe Illustrator 25.0.1, SVG Export Plug-In . SVG Version: 6.00 Build 0)  -->
<svg version="1.1" id="Слой_2" xmlns="http://www.w3.org/2000/svg" xmlns:xlink="http://www.w3.org/1999/xlink" x="0px" y="0px"
	 viewBox="0 0 22.7 22.7" style="enable-background:new 0 0 22.7 22.7;" xml:space="preserve">
<style type="text/css">
	.st0{fill:#FFFFFF;}
</style>
<g>
	<path class="st0" d="M6.6,7.1c1,0.6,2.2,0.2,2.7-0.7c1.9-2.8,5.6,0.9,2.6,2.7c-0.5,0.3-1.3,0.9-1.8,1.5c-0.5,0.6-1,1.5-1,2.5
		c0,0.1,0,0.1,0,0.2c0,1.1,0.9,2,2,2c1.5,0,1.8-0.8,2.1-1.6c0.2-0.5,0.4-1.1,0.9-1.4c1.7-1,3-2.8,3-5c0-3.3-2.7-6-6-6
		c-2.2,0-4.2,1.2-5.2,3C5.3,5.3,5.6,6.5,6.6,7.1z"/>
	<circle class="st0" cx="11.1" cy="19.3" r="2"/>
</g>
</svg>
