<svg width="41" height="41" viewBox="0 0 41 41" fill="none" xmlns="http://www.w3.org/2000/svg">
<circle cx="20.5" cy="20.5" r="20" fill="white"/>
<path fill-rule="evenodd" clip-rule="evenodd" d="M0.5 20.5C0.5 9.45431 9.45431 0.5 20.5 0.5C31.5457 0.5 40.5 9.45431 40.5 20.5C40.5 31.5457 31.5457 40.5 20.5 40.5C9.45431 40.5 0.5 31.5457 0.5 20.5ZM15.9142 13.0858C15.1332 12.3047 13.8668 12.3047 13.0858 13.0858C12.3047 13.8668 12.3047 15.1332 13.0858 15.9142L17.6716 20.5L13.0858 25.0858C12.3047 25.8668 12.3047 27.1332 13.0858 27.9142C13.8668 28.6953 15.1332 28.6953 15.9142 27.9142L20.5 23.3284L25.0858 27.9142C25.8668 28.6953 27.1332 28.6953 27.9142 27.9142C28.6953 27.1332 28.6953 25.8668 27.9142 25.0858L23.3284 20.5L27.9142 15.9142C28.6953 15.1332 28.6953 13.8668 27.9142 13.0858C27.1332 12.3047 25.8668 12.3047 25.0858 13.0858L20.5 17.6716L15.9142 13.0858Z"/>
</svg>
