<svg width="24" height="24" viewBox="0 0 24 24" fill="none" xmlns="http://www.w3.org/2000/svg">
<path fill-rule="evenodd" clip-rule="evenodd" d="M16 7H15.9999H14.9999H8.9999H7.99999H7.9999C7.44766 7.00005 6.99999 7.44774 6.99999 8C6.99999 8.55226 7.44766 8.99995 7.9999 9V11.4286C7.9999 11.6153 7.94761 11.7983 7.84896 11.9569L4.45273 17.4151C3.20931 19.4134 4.64628 22 6.99989 22H16.9934C19.3459 22 20.783 19.4155 19.5418 17.4171L16.1504 11.9571C16.052 11.7987 15.9999 11.6159 15.9999 11.4294V9H16C16.5523 9 17 8.55228 17 8C17 7.44772 16.5523 7 16 7ZM9.9999 11.4286V9H13.9999V11.4294C13.9999 11.9888 14.1563 12.5371 14.4515 13.0123L15.6861 15H8.31101L9.54707 13.0135C9.84304 12.5378 9.9999 11.9888 9.9999 11.4286ZM7.06657 17L6.15084 18.4717C5.73637 19.1378 6.21536 20 6.99989 20H16.9934C17.7775 20 18.2566 19.1385 17.8428 18.4724L16.9283 17H7.06657Z"/>
<path fill-rule="evenodd" clip-rule="evenodd" d="M14 4C14.5523 4 15 3.55228 15 3C15 2.44772 14.5523 2 14 2C13.4477 2 13 2.44772 13 3C13 3.55228 13.4477 4 14 4ZM10 5C10.5523 5 11 4.55228 11 4C11 3.44772 10.5523 3 10 3C9.44772 3 9 3.44772 9 4C9 4.55228 9.44772 5 10 5Z"/>
</svg>
