<svg width="32" height="32" viewBox="0 0 32 32" fill="none" xmlns="http://www.w3.org/2000/svg">
<path fill-rule="evenodd" clip-rule="evenodd" d="M15.3501 3C14.2731 3 13.4001 3.87304 13.4001 4.95V5.42373C13.4001 5.72032 13.1986 5.97723 12.9153 6.06508C12.303 6.25499 11.7149 6.49994 11.1568 6.79416C10.8944 6.9325 10.5703 6.8933 10.3605 6.68355L10.0249 6.34799C9.26343 5.58647 8.02875 5.58647 7.26723 6.34799L6.34799 7.26723C5.58647 8.02875 5.58647 9.26342 6.34799 10.0249L6.68355 10.3605C6.8933 10.5703 6.9325 10.8944 6.79416 11.1568C6.49996 11.7149 6.25501 12.303 6.06511 12.9153C5.97725 13.1985 5.72034 13.4 5.42376 13.4H4.95C3.87304 13.4 3 14.273 3 15.35V16.65C3 17.727 3.87304 18.6 4.95 18.6H5.42376C5.72034 18.6 5.97725 18.8015 6.06511 19.0847C6.25501 19.697 6.49996 20.2851 6.79416 20.8432C6.9325 21.1056 6.8933 21.4297 6.68355 21.6395L6.34799 21.9751C5.58647 22.7366 5.58647 23.9712 6.34799 24.7328L7.26723 25.652C8.02875 26.4135 9.26342 26.4135 10.0249 25.652L10.3605 25.3165C10.5703 25.1067 10.8944 25.0675 11.1568 25.2058C11.7149 25.5001 12.303 25.745 12.9153 25.9349C13.1986 26.0228 13.4001 26.2797 13.4001 26.5763V27.05C13.4001 28.127 14.2731 29 15.3501 29H16.6501C17.727 29 18.6001 28.127 18.6001 27.05V26.5762C18.6001 26.2796 18.8015 26.0227 19.0848 25.9349C19.6971 25.745 20.2851 25.5 20.8432 25.2058C21.1056 25.0675 21.4297 25.1067 21.6395 25.3165L21.975 25.652C22.7366 26.4135 23.9712 26.4135 24.7328 25.652L25.652 24.7328C26.4135 23.9712 26.4135 22.7366 25.652 21.9751L25.3165 21.6395C25.1067 21.4297 25.0675 21.1056 25.2058 20.8432C25.5 20.2851 25.745 19.697 25.9349 19.0847C26.0228 18.8015 26.2797 18.6 26.5762 18.6H27.05C28.127 18.6 29 17.727 29 16.65V15.35C29 14.273 28.127 13.4 27.05 13.4H26.5762C26.2797 13.4 26.0228 13.1985 25.9349 12.9153C25.745 12.303 25.5 11.7149 25.2058 11.1568C25.0675 10.8944 25.1067 10.5703 25.3165 10.3605L25.652 10.0249C26.4135 9.26342 26.4135 8.02875 25.652 7.26723L24.7328 6.34799C23.9712 5.58647 22.7366 5.58647 21.9751 6.34799L21.6395 6.68355C21.4297 6.8933 21.1056 6.9325 20.8432 6.79416C20.2851 6.49997 19.6971 6.25503 19.0848 6.06513C18.8015 5.97727 18.6001 5.72037 18.6001 5.42379V4.95C18.6001 3.87304 17.727 3 16.6501 3H15.3501ZM16 19.9C18.1539 19.9 19.9 18.1539 19.9 16C19.9 13.8461 18.1539 12.1 16 12.1C13.8461 12.1 12.1 13.8461 12.1 16C12.1 18.1539 13.8461 19.9 16 19.9Z" fill="#262626"/>
</svg>
