<svg width="25" height="24" viewBox="0 0 25 24" fill="none" xmlns="http://www.w3.org/2000/svg">
<path d="M12.0273 1.5C6.22891 1.5 1.52734 6.20156 1.52734 12C1.52734 17.7984 6.22891 22.5 12.0273 22.5C17.8258 22.5 22.5273 17.7984 22.5273 12C22.5273 6.20156 17.8258 1.5 12.0273 1.5ZM12.0273 20.7188C7.21328 20.7188 3.30859 16.8141 3.30859 12C3.30859 7.18594 7.21328 3.28125 12.0273 3.28125C16.8414 3.28125 20.7461 7.18594 20.7461 12C20.7461 16.8141 16.8414 20.7188 12.0273 20.7188Z" fill="#8C8C8C"/>
<path d="M14.6426 7.42192C13.9395 6.80552 13.0114 6.46802 12.027 6.46802C11.0426 6.46802 10.1145 6.80786 9.41135 7.42192C8.6801 8.06177 8.27698 8.92192 8.27698 9.84302V10.0211C8.27698 10.1243 8.36135 10.2086 8.46448 10.2086H9.58948C9.6926 10.2086 9.77698 10.1243 9.77698 10.0211V9.84302C9.77698 8.80942 10.7871 7.96802 12.027 7.96802C13.2668 7.96802 14.277 8.80942 14.277 9.84302C14.277 10.5719 13.7614 11.2399 12.9621 11.5469C12.4653 11.7368 12.0434 12.0696 11.741 12.5055C11.434 12.9508 11.2746 13.4852 11.2746 14.0266V14.5305C11.2746 14.6336 11.359 14.718 11.4621 14.718H12.5871C12.6903 14.718 12.7746 14.6336 12.7746 14.5305V13.9985C12.7758 13.771 12.8456 13.5491 12.9748 13.3618C13.104 13.1745 13.2866 13.0305 13.4989 12.9485C14.8817 12.4165 15.7746 11.1977 15.7746 9.84302C15.777 8.92192 15.3739 8.06177 14.6426 7.42192ZM11.0895 17.1555C11.0895 17.4042 11.1883 17.6426 11.3641 17.8184C11.5399 17.9942 11.7783 18.093 12.027 18.093C12.2756 18.093 12.5141 17.9942 12.6899 17.8184C12.8657 17.6426 12.9645 17.4042 12.9645 17.1555C12.9645 16.9069 12.8657 16.6684 12.6899 16.4926C12.5141 16.3168 12.2756 16.218 12.027 16.218C11.7783 16.218 11.5399 16.3168 11.3641 16.4926C11.1883 16.6684 11.0895 16.9069 11.0895 17.1555Z" fill="#8C8C8C"/>
</svg>
