<svg width="45" height="40" viewBox="0 0 45 40" fill="none" xmlns="http://www.w3.org/2000/svg">
<path d="M40.7813 25.6242H12.3662C12.753 24.9336 13.1414 24.2273 13.5246 23.5102C13.5668 23.4336 13.6073 23.3539 13.6477 23.282C16.0313 23.032 18.7067 21.5227 21.6493 18.7664C22.5862 20.6508 24.1225 22.6523 26.5096 23.0539C27.4325 23.2102 28.8809 23.1773 30.535 22.1461C31.1157 21.7777 31.6507 21.3555 32.1311 20.8867C33.5953 22.0773 36.1881 23.1242 40.7813 23.1242C41.3407 23.1242 41.8773 22.9267 42.2728 22.575C42.6684 22.2234 42.8907 21.7465 42.8907 21.2492C42.8907 20.7519 42.6684 20.275 42.2728 19.9234C41.8773 19.5718 41.3407 19.3742 40.7813 19.3742C35.0403 19.3742 34.4866 17.5602 34.4532 17.4055C34.4285 16.9809 34.2423 16.5764 33.9251 16.2582C33.6078 15.9401 33.1783 15.7272 32.7071 15.6546C32.2359 15.5819 31.7508 15.6538 31.3316 15.8584C30.9123 16.0629 30.5837 16.3881 30.3996 16.7805C28.7526 18.957 27.6575 19.4367 27.2954 19.3742C26.4323 19.2289 25.1069 16.9211 24.5672 14.6258C24.4814 14.2548 24.2712 13.9155 23.9642 13.6528C23.6573 13.3901 23.268 13.2161 22.8477 13.1539C22.4274 13.0916 21.9957 13.144 21.6095 13.3041C21.2233 13.4642 20.9007 13.7245 20.6842 14.0508C18.9264 15.9852 17.4217 17.3211 16.1702 18.1914C19.9161 9.88047 19.1848 6.86016 18.1864 5.28984C17.3075 3.90391 15.7254 3.13672 13.7286 3.12891H13.6723C10.5082 3.14922 7.97172 5.73203 6.8643 10.0461C6.25785 12.4102 6.16117 15.0273 6.60766 17.2242C7.07172 19.5195 8.07191 21.2352 9.52738 22.2586C8.89984 23.4117 8.26176 24.5445 7.63773 25.6242H4.21879C3.65935 25.6242 3.12282 25.8218 2.72724 26.1734C2.33165 26.525 2.10941 27.0019 2.10941 27.4992C2.10941 27.9965 2.33165 28.4734 2.72724 28.825C3.12282 29.1767 3.65935 29.3742 4.21879 29.3742H5.39301C3.69145 32.1352 2.43285 33.9992 2.40473 34.032C2.26192 34.2431 2.16728 34.477 2.12621 34.7206C2.08514 34.9641 2.09845 35.2125 2.16538 35.4515C2.2323 35.6904 2.35153 35.9153 2.51626 36.1133C2.68099 36.3114 2.88799 36.4786 3.12543 36.6055C3.45489 36.7832 3.83338 36.8763 4.21879 36.8742C4.58278 36.8745 4.94065 36.791 5.25761 36.6319C5.57457 36.4729 5.83982 36.2436 6.02758 35.9664C6.13656 35.8023 7.94887 33.1242 10.1954 29.3742H40.7813C41.3407 29.3742 41.8773 29.1767 42.2728 28.825C42.6684 28.4734 42.8907 27.9965 42.8907 27.4992C42.8907 27.0019 42.6684 26.525 42.2728 26.1734C41.8773 25.8218 41.3407 25.6242 40.7813 25.6242ZM34.4532 17.4992V17.4148C34.4558 17.4429 34.4558 17.4711 34.4532 17.4992ZM10.9758 10.8758C11.5612 8.59297 12.7336 6.87422 13.711 6.87422C14.3561 6.87422 14.458 7.03047 14.5196 7.13047C14.7709 7.52734 15.6709 9.80078 11.4575 18.5055C11.1187 17.8914 10.883 17.2365 10.7579 16.5617C10.4169 14.6717 10.4909 12.7408 10.9758 10.8758Z" fill="#218100"/>
</svg>
