<svg width="45" height="40" viewBox="0 0 45 40" fill="none" xmlns="http://www.w3.org/2000/svg">
<g clip-path="url(#clip0_2976_33819)">
<path d="M12.7688 0.365C13.0323 0.131328 13.3893 7.02974e-05 13.7616 0L31.2384 0C31.6107 7.02974e-05 31.9677 0.131328 32.2313 0.365L44.5894 11.35C44.8523 11.5843 44.9999 11.9016 45 12.2325V27.7675C44.9999 28.0984 44.8523 28.4157 44.5894 28.65L32.2313 39.635C31.9677 39.8687 31.6107 39.9999 31.2384 40H13.7616C13.3893 39.9999 13.0323 39.8687 12.7688 39.635L0.410625 28.65C0.147744 28.4157 7.90846e-05 28.0984 0 27.7675L0 12.2325C7.90846e-05 11.9016 0.147744 11.5843 0.410625 11.35L12.7688 0.365ZM14.3438 2.5L2.8125 12.75V27.25L14.3438 37.5H30.6562L42.1875 27.25V12.75L30.6562 2.5H14.3438Z" fill="#FF0000"/>
<path d="M33.488 23.2477H17.7019C17.9167 22.9023 18.1325 22.5492 18.3454 22.1906C18.3689 22.1523 18.3913 22.1125 18.4138 22.0766C19.738 21.9516 21.2243 21.1969 22.8591 19.8188C23.3796 20.7609 24.2331 21.7617 25.5593 21.9625C26.072 22.0406 26.8767 22.0242 27.7956 21.5086C28.1182 21.3244 28.4154 21.1133 28.6823 20.8789C29.4958 21.4742 30.9362 21.9977 33.488 21.9977C33.7988 21.9977 34.0969 21.8989 34.3166 21.7231C34.5364 21.5473 34.6599 21.3088 34.6599 21.0602C34.6599 20.8115 34.5364 20.5731 34.3166 20.3972C34.0969 20.2214 33.7988 20.1227 33.488 20.1227C30.2985 20.1227 29.9909 19.2156 29.9724 19.1383C29.9587 18.926 29.8552 18.7237 29.679 18.5647C29.5027 18.4056 29.2641 18.2992 29.0023 18.2628C28.7405 18.2265 28.4711 18.2624 28.2381 18.3647C28.0052 18.467 27.8227 18.6296 27.7204 18.8258C26.8054 19.9141 26.197 20.1539 25.9958 20.1227C25.5163 20.05 24.78 18.8961 24.4802 17.7484C24.4325 17.5629 24.3157 17.3933 24.1452 17.262C23.9747 17.1306 23.7584 17.0436 23.5249 17.0125C23.2914 16.9814 23.0515 17.0076 22.837 17.0876C22.6224 17.1677 22.4432 17.2978 22.323 17.4609C21.3464 18.4281 20.5105 19.0961 19.8151 19.5312C21.8962 15.3758 21.4899 13.8656 20.9353 13.0805C20.447 12.3875 19.5681 12.0039 18.4587 12H18.4274C16.6696 12.0102 15.2605 13.3016 14.6452 15.4586C14.3083 16.6406 14.2546 17.9492 14.5026 19.0477C14.7605 20.1953 15.3161 21.0531 16.1247 21.5648C15.7761 22.1414 15.4216 22.7078 15.0749 23.2477H13.1755C12.8647 23.2477 12.5666 23.3464 12.3469 23.5222C12.1271 23.6981 12.0036 23.9365 12.0036 24.1852C12.0036 24.4338 12.1271 24.6723 12.3469 24.8481C12.5666 25.0239 12.8647 25.1227 13.1755 25.1227H13.8278C12.8825 26.5031 12.1833 27.4352 12.1677 27.4516C12.0883 27.5571 12.0358 27.6741 12.0129 27.7958C11.9901 27.9176 11.9975 28.0418 12.0347 28.1613C12.0719 28.2808 12.1381 28.3932 12.2296 28.4922C12.3212 28.5912 12.4362 28.6748 12.5681 28.7383C12.7511 28.8272 12.9614 28.8737 13.1755 28.8727C13.3777 28.8728 13.5765 28.8311 13.7526 28.7515C13.9287 28.672 14.0761 28.5573 14.1804 28.4188C14.2409 28.3367 15.2478 26.9977 16.4958 25.1227H33.488C33.7988 25.1227 34.0969 25.0239 34.3166 24.8481C34.5364 24.6723 34.6599 24.4338 34.6599 24.1852C34.6599 23.9365 34.5364 23.6981 34.3166 23.5222C34.0969 23.3464 33.7988 23.2477 33.488 23.2477ZM29.9724 19.1852V19.143C29.9739 19.157 29.9739 19.1711 29.9724 19.1852ZM16.9294 15.8734C17.2546 14.732 17.906 13.8727 18.4489 13.8727C18.8073 13.8727 18.864 13.9508 18.8981 14.0008C19.0378 14.1992 19.5378 15.3359 17.197 19.6883C17.0088 19.3813 16.8778 19.0538 16.8083 18.7164C16.6189 17.7714 16.66 16.806 16.9294 15.8734Z" fill="#218100"/>
</g>
<defs>
<clipPath id="clip0_2976_33819">
<rect width="45" height="40" fill="white"/>
</clipPath>
</defs>
</svg>
