<svg width="45" height="40" viewBox="0 0 45 40" fill="none" xmlns="http://www.w3.org/2000/svg">
<g clip-path="url(#clip0_2976_33983)">
<path d="M12.7688 0.365C13.0323 0.131328 13.3893 7.02974e-05 13.7616 0L31.2384 0C31.6107 7.02974e-05 31.9677 0.131328 32.2313 0.365L44.5894 11.35C44.8523 11.5843 44.9999 11.9016 45 12.2325V27.7675C44.9999 28.0984 44.8523 28.4157 44.5894 28.65L32.2313 39.635C31.9677 39.8687 31.6107 39.9999 31.2384 40H13.7616C13.3893 39.9999 13.0323 39.8687 12.7688 39.635L0.410625 28.65C0.147744 28.4157 7.90846e-05 28.0984 0 27.7675L0 12.2325C7.90846e-05 11.9016 0.147744 11.5843 0.410625 11.35L12.7688 0.365ZM14.3438 2.5L2.8125 12.75V27.25L14.3438 37.5H30.6562L42.1875 27.25V12.75L30.6562 2.5H14.3438Z" fill="#FF0000"/>
<path d="M21.6667 13C17.9908 13 15 15.9908 15 19.6667C15 23.3425 17.9908 26.3333 21.6667 26.3333C25.3425 26.3333 28.3333 23.3425 28.3333 19.6667C28.3333 15.9908 25.3425 13 21.6667 13ZM17.5 19.6667C17.5 18.9733 17.6867 18.33 17.9867 17.7542L23.5792 23.3467C22.9905 23.6615 22.3342 23.8285 21.6667 23.8333C19.3692 23.8333 17.5 21.9642 17.5 19.6667ZM25.3467 21.5792L19.7542 15.9867C20.3428 15.6719 20.9992 15.5049 21.6667 15.5C23.9642 15.5 25.8333 17.3692 25.8333 19.6667C25.8333 20.36 25.6467 21.0033 25.3467 21.5792Z" fill="#DE0808"/>
</g>
<defs>
<clipPath id="clip0_2976_33983">
<rect width="45" height="40" fill="white"/>
</clipPath>
</defs>
</svg>
