<svg width="24" height="24" viewBox="0 0 24 24" xmlns="http://www.w3.org/2000/svg">
    <path d="M21.6581 16.6067C21.8623 16.6747 22 16.8658 22 17.081V17.9997C22 19.1043 21.1046 19.9997 20 19.9997H4C2.89543 19.9997 2 19.1043 2 17.9997V13.081C2 12.7397 2.33435 12.4988 2.65811 12.6067L9.13144 14.7645C9.67271 14.9449 10.2542 14.9672 10.8077 14.8288L13.6777 14.1113C13.8622 14.0652 14.056 14.0727 14.2365 14.1328L21.6581 16.6067Z"/>
    <path d="M4.92262 4.23273C3.59121 3.54048 2 4.50659 2 6.00721V9.91875C2 10.134 2.13772 10.325 2.34189 10.3931L9.76389 12.8671C9.94432 12.9272 10.1381 12.9347 10.3227 12.8886L13.1926 12.1711C13.7461 12.0327 14.3276 12.055 14.8689 12.2354L21.3419 14.3931C21.6657 14.501 22 14.26 22 13.9188V11.5801C22 10.8624 21.6154 10.1997 20.9923 9.84358L14.845 6.33086C14.3972 6.075 13.868 6.00198 13.3677 6.12706L10.4927 6.84579C10.2559 6.90501 10.0055 6.87552 9.78888 6.76289L4.92262 4.23273Z"/>
</svg>
