<svg width="24" height="24" viewBox="0 0 24 24" fill="none" xmlns="http://www.w3.org/2000/svg">
<g clip-path="url(#clip0_32347_348340)">
<g clip-path="url(#clip1_32347_348340)">
<path d="M20.0197 8.16697C18.7929 4.92857 15.667 2.625 12.0054 2.625C8.34383 2.625 5.21794 4.92589 3.99115 8.16429C1.6849 8.77232 -0.0133142 10.8804 7.86628e-05 13.3821C0.0161501 16.1786 2.18579 18.4527 4.91794 18.6964C5.04383 18.7071 5.15097 18.608 5.15097 18.4821V16.8643C5.15097 16.7571 5.07061 16.6661 4.96347 16.6527C4.24026 16.5616 3.55722 16.2455 3.03222 15.7286C2.38936 15.0991 2.03579 14.2527 2.03579 13.3554C2.03579 12.6054 2.27954 11.8982 2.73758 11.3089C3.1849 10.7357 3.81436 10.3205 4.50811 10.1384L5.52329 9.87054L5.89561 8.8875C6.12597 8.27679 6.4474 7.70357 6.85186 7.18661C7.25097 6.67232 7.72508 6.22232 8.25543 5.84732C9.35633 5.07321 10.6528 4.66339 12.0054 4.66339C13.3581 4.66339 14.6545 5.07321 15.7554 5.85C16.2885 6.225 16.7599 6.675 17.159 7.18929C17.5635 7.70625 17.8849 8.27946 18.1153 8.89018L18.4849 9.87054L19.4974 10.1384C20.9492 10.5241 21.9644 11.8446 21.9644 13.3527C21.9644 14.2527 21.6108 15.0964 20.9679 15.7259C20.4456 16.2402 19.7653 16.5589 19.042 16.65C18.9349 16.6634 18.8572 16.7545 18.8572 16.8616V18.4821C18.8572 18.608 18.967 18.7071 19.0929 18.6964C21.817 18.45 23.9813 16.1786 24.0001 13.3875C24.0161 10.8857 22.3206 8.77768 20.0197 8.16697Z" fill="#FA8C16"/>
<path d="M8.3815 15.8734C8.42971 14.9761 8.80204 14.1404 9.43954 13.5002C10.1199 12.8171 11.0467 12.4341 12.011 12.4341C12.9806 12.4341 13.894 12.8118 14.5824 13.5002C14.6199 13.5377 14.6547 13.5752 14.6922 13.6154L14.0226 14.1404C13.9907 14.165 13.9664 14.1982 13.9525 14.2361C13.9386 14.274 13.9357 14.315 13.9441 14.3544C13.9525 14.3939 13.9718 14.4302 13.9999 14.4591C14.028 14.4881 14.0637 14.5085 14.1029 14.518L16.7333 15.1609C16.8672 15.193 16.9985 15.0912 16.9985 14.9546L17.0119 12.2412C17.0119 12.0618 16.8083 11.96 16.6663 12.0725L16.0449 12.56C15.0645 11.435 13.6235 10.7225 12.0136 10.7225C9.13686 10.7225 6.79043 13.002 6.67257 15.8573C6.66721 15.9779 6.76364 16.0796 6.88686 16.0796H8.16989C8.28239 16.077 8.37614 15.9886 8.3815 15.8734ZM17.1163 16.077H15.8333C15.7208 16.077 15.627 16.1654 15.619 16.2805C15.5708 17.1779 15.1985 18.0136 14.561 18.6537C13.8806 19.3368 12.9538 19.7198 11.9895 19.7198C11.0199 19.7198 10.1065 19.3421 9.41811 18.6537C9.38061 18.6162 9.34579 18.5787 9.30828 18.5386L9.97793 18.0136C10.0098 17.9889 10.0341 17.9557 10.048 17.9178C10.0619 17.88 10.0648 17.8389 10.0564 17.7995C10.048 17.76 10.0287 17.7237 10.0006 17.6948C9.97246 17.6659 9.93676 17.6454 9.89757 17.6359L7.26721 16.993C7.13328 16.9609 7.00203 17.0627 7.00203 17.1993L6.99132 19.9154C6.99132 20.0948 7.19489 20.1966 7.33686 20.0841L7.95829 19.5966C8.93864 20.7216 10.3797 21.4341 11.9895 21.4341C14.8663 21.4341 17.2127 19.1546 17.3306 16.2993C17.336 16.1787 17.2395 16.077 17.1163 16.077Z" fill="#FA8C16"/>
</g>
</g>
<defs>
<clipPath id="clip0_32347_348340">
<rect width="24" height="24" fill="white"/>
</clipPath>
<clipPath id="clip1_32347_348340">
<rect width="24" height="24" fill="white"/>
</clipPath>
</defs>
</svg>