<svg width="24" height="24" viewBox="0 0 24 24" fill="none" xmlns="http://www.w3.org/2000/svg">
<g clip-path="url(#clip0_32308_346781)">
<g clip-path="url(#clip1_32308_346781)">
<path d="M15.0001 17.2043H13.0153V10.7141C13.0153 10.5963 12.9189 10.4999 12.801 10.4999H11.1939C11.076 10.4999 10.9796 10.5963 10.9796 10.7141V17.2043H9.00012C8.82065 17.2043 8.72155 17.4106 8.83137 17.5499L11.8314 21.3454C11.8514 21.371 11.877 21.3917 11.9063 21.406C11.9355 21.4202 11.9676 21.4276 12.0001 21.4276C12.0326 21.4276 12.0647 21.4202 12.094 21.406C12.1232 21.3917 12.1488 21.371 12.1689 21.3454L15.1689 17.5499C15.2787 17.4106 15.1796 17.2043 15.0001 17.2043Z" fill="#F00003"/>
<path d="M20.0196 8.10301C18.7929 4.8673 15.667 2.56641 12.0054 2.56641C8.34375 2.56641 5.21786 4.86462 3.99107 8.10033C1.69554 8.70301 0 10.795 0 13.2807C0 16.2405 2.39732 18.6378 5.35446 18.6378H6.42857C6.54643 18.6378 6.64286 18.5414 6.64286 18.4235V16.8164C6.64286 16.6985 6.54643 16.6021 6.42857 16.6021H5.35446C4.45179 16.6021 3.60268 16.2432 2.97054 15.5923C2.34107 14.9441 2.00625 14.0709 2.03571 13.1655C2.05982 12.4584 2.30089 11.7941 2.7375 11.2343C3.18482 10.6637 3.81161 10.2485 4.50804 10.0637L5.52321 9.79855L5.89554 8.81819C6.12589 8.20748 6.44732 7.63694 6.85179 7.11998C7.25108 6.60759 7.72407 6.15716 8.25536 5.78337C9.35625 5.00926 10.6527 4.59944 12.0054 4.59944C13.358 4.59944 14.6545 5.00926 15.7554 5.78337C16.2884 6.15837 16.7598 6.60837 17.1589 7.11998C17.5634 7.63694 17.8848 8.21016 18.1152 8.81819L18.4848 9.79587L19.4973 10.0637C20.9491 10.4548 21.9643 11.7753 21.9643 13.2807C21.9643 14.1673 21.6187 15.003 20.992 15.6298C20.6846 15.939 20.3189 16.1841 19.9162 16.351C19.5134 16.5179 19.0815 16.6033 18.6455 16.6021H17.5714C17.4536 16.6021 17.3571 16.6985 17.3571 16.8164V18.4235C17.3571 18.5414 17.4536 18.6378 17.5714 18.6378H18.6455C21.6027 18.6378 24 16.2405 24 13.2807C24 10.7977 22.3098 8.70837 20.0196 8.10301Z" fill="#F00003"/>
</g>
</g>
<defs>
<clipPath id="clip0_32308_346781">
<rect width="24" height="24" fill="white"/>
</clipPath>
<clipPath id="clip1_32308_346781">
<rect width="24" height="24" fill="white"/>
</clipPath>
</defs>
</svg>