<svg width="48" height="48" viewBox="0 0 48 48" fill="none" xmlns="http://www.w3.org/2000/svg">
<g clip-path="url(#clip0_112_12834)">
<path d="M45.07 14.648L47.93 11.848L36.43 0.10199L33.57 2.90199L38.082 7.50199L33.724 11.584L31.9 9.75799C31.3428 9.20073 30.6814 8.75868 29.9533 8.45709C29.2253 8.1555 28.445 8.00027 27.657 8.00027C26.869 8.00027 26.0887 8.1555 25.3607 8.45709C24.6326 8.75868 23.9712 9.20073 23.414 9.75799L6 27.172V39.172L0.0859985 45.086L2.914 47.914L8.828 42H20.828L38.242 24.586C38.7993 24.0288 39.2413 23.3673 39.5429 22.6393C39.8445 21.9113 39.9997 21.131 39.9997 20.343C39.9997 19.555 39.8445 18.7747 39.5429 18.0467C39.2413 17.3186 38.7993 16.6572 38.242 16.1L36.554 14.414L40.88 10.368L45.07 14.648ZM35.414 21.758L19.172 38H10V30.578L13.836 34.414L16.664 31.586L11.954 26.876L15.126 23.704L19.836 28.414L22.664 25.586L17.954 20.876L21.126 17.704L25.836 22.414L28.664 19.586L23.954 14.876L26.242 12.586C26.4277 12.4 26.6483 12.2525 26.8911 12.1519C27.1339 12.0512 27.3942 11.9994 27.657 11.9994C27.9198 11.9994 28.1801 12.0512 28.4229 12.1519C28.6657 12.2525 28.8863 12.4 29.072 12.586L35.414 18.928C35.6 19.1137 35.7475 19.3343 35.8481 19.5771C35.9488 19.8199 36.0006 20.0802 36.0006 20.343C36.0006 20.6058 35.9488 20.8661 35.8481 21.1089C35.7475 21.3517 35.6 21.5722 35.414 21.758Z" fill="black"/>
</g>
<defs>
<clipPath id="clip0_112_12834">
<rect width="48" height="48" fill="white"/>
</clipPath>
</defs>
</svg>
