<svg width="18" height="14" viewBox="0 0 18 14" fill="none" xmlns="http://www.w3.org/2000/svg">
    <path d="M4.3125 0.125C3.40112 0.125993 2.52736 0.488475 1.88292 1.13292C1.23848 1.77736 0.875993 2.65112 0.875 3.5625V10.4375C0.875 12.3325 2.41688 13.875 4.3125 13.875C6.20812 13.875 7.75 12.3325 7.75 10.4375V3.5625C7.75 1.6675 6.20812 0.125 4.3125 0.125ZM4.3125 1.375C5.51875 1.375 6.5 2.35625 6.5 3.5625V6.375H2.125V3.5625C2.125 2.35625 3.10625 1.375 4.3125 1.375ZM13.0625 5.75C11.9855 5.75132 10.9529 6.17976 10.1913 6.94134C9.42976 7.70292 9.00132 8.73546 9 9.8125C9 12.0525 10.8225 13.875 13.0625 13.875C15.3025 13.875 17.125 12.0525 17.125 9.8125C17.125 7.5725 15.3025 5.75 13.0625 5.75ZM13.0625 7C14.6131 7 15.875 8.26188 15.875 9.8125C15.875 10.3619 15.7112 10.8706 15.4375 11.3044L11.5706 7.43687C12.0164 7.15269 12.5338 7.00117 13.0625 7ZM2.125 7.625H6.5V10.4375C6.5 11.6438 5.51875 12.625 4.3125 12.625C3.10625 12.625 2.125 11.6438 2.125 10.4375V7.625ZM10.6875 8.32063L14.5544 12.1881C14.1206 12.4612 13.6119 12.625 13.0625 12.625C12.3168 12.6242 11.6019 12.3276 11.0747 11.8003C10.5474 11.2731 10.2508 10.5582 10.25 9.8125C10.25 9.26312 10.4138 8.75438 10.6875 8.32063Z"/>
</svg>
