<svg width="16" height="16" viewBox="0 0 16 16" fill="currentColor" xmlns="http://www.w3.org/2000/svg">
<path d="M1.33334 2.23807C1.33334 1.99812 1.42866 1.76799 1.59833 1.59831C1.76801 1.42864 1.99814 1.33331 2.2381 1.33331H13.0952C13.3352 1.33331 13.5653 1.42864 13.735 1.59831C13.9047 1.76799 14 1.99812 14 2.23807V4.0476C14 4.28756 13.9047 4.51769 13.735 4.68736C13.5653 4.85704 13.3352 4.95236 13.0952 4.95236H2.2381C1.99814 4.95236 1.76801 4.85704 1.59833 4.68736C1.42866 4.51769 1.33334 4.28756 1.33334 4.0476V2.23807ZM1.33334 7.66665C1.33334 7.42669 1.42866 7.19656 1.59833 7.02688C1.76801 6.85721 1.99814 6.76188 2.2381 6.76188H7.66667C7.90663 6.76188 8.13676 6.85721 8.30643 7.02688C8.47611 7.19656 8.57143 7.42669 8.57143 7.66665V13.0952C8.57143 13.3352 8.47611 13.5653 8.30643 13.735C8.13676 13.9047 7.90663 14 7.66667 14H2.2381C1.99814 14 1.76801 13.9047 1.59833 13.735C1.42866 13.5653 1.33334 13.3352 1.33334 13.0952V7.66665ZM11.2857 6.76188C11.0458 6.76188 10.8156 6.85721 10.646 7.02688C10.4763 7.19656 10.381 7.42669 10.381 7.66665V13.0952C10.381 13.3352 10.4763 13.5653 10.646 13.735C10.8156 13.9047 11.0458 14 11.2857 14H13.0952C13.3352 14 13.5653 13.9047 13.735 13.735C13.9047 13.5653 14 13.3352 14 13.0952V7.66665C14 7.42669 13.9047 7.19656 13.735 7.02688C13.5653 6.85721 13.3352 6.76188 13.0952 6.76188H11.2857Z" fill="currentColor"/>
</svg>
