<svg width="32" height="25" viewBox="0 0 32 25" fill="none" xmlns="http://www.w3.org/2000/svg">
<path d="M16 2.29431C19.7235 2.29431 23.1903 3.51219 25.9258 5.12163C29.6071 7.28749 32 10.2535 32 12.0072C32 13.7481 29.4613 16.6525 25.805 18.8036C25.7195 18.8539 25.6333 18.9039 25.5465 18.9534L24.4824 17.8876C24.6821 17.7783 24.8786 17.6667 25.0718 17.5531C28.302 15.6526 30.5449 13.2919 30.5449 12.0072C30.5449 10.6907 28.4364 8.28057 25.1926 6.37212C22.6551 4.8792 19.4432 3.74945 16 3.74945C14.2979 3.74945 12.6521 4.03181 11.1163 4.49995L9.96669 3.34849C11.8354 2.6989 13.8758 2.29431 16 2.29431ZM24.2048 19.6632C23.7443 19.8879 23.2709 20.1001 22.7869 20.2966L21.6677 19.1755C22.1618 18.9924 22.646 18.7908 23.1175 18.5741L24.2048 19.6632ZM21.2826 20.8434C19.5845 21.3887 17.7936 21.7201 16 21.7201C12.5369 21.7201 9.08452 20.4596 6.29178 18.8166C2.58386 16.6351 0 13.6795 0 12.0072C0 10.38 2.27351 7.50622 5.79707 5.33298L6.85171 6.38931C3.58272 8.32353 1.45514 10.7551 1.45514 12.0072C1.45514 13.2352 3.74255 15.6349 7.02502 17.5661C9.62091 19.0933 12.8165 20.2649 16 20.2649C17.3874 20.2649 18.7769 20.0472 20.1179 19.6769L21.2826 20.8434ZM7.10489 4.5893C7.55196 4.35534 8.01496 4.13292 8.49216 3.92518L9.59953 5.03434C9.1119 5.22958 8.63867 5.44201 8.18182 5.66797L7.10489 4.5893Z" fill="#2B2A29"/>
<path d="M16.0008 2.6217C18.5924 2.6217 20.9388 3.67226 22.6373 5.37073C24.3358 7.06919 25.3863 9.41559 25.3863 12.0072C25.3863 13.9334 24.8059 15.724 23.8106 17.214L22.7582 16.1599C23.502 14.9521 23.9312 13.5298 23.9312 12.0072C23.9312 9.81725 23.0436 7.83461 21.6085 6.39954C20.1734 4.96447 18.1908 4.07684 16.0008 4.07684C14.4828 4.07684 13.0644 4.50343 11.859 5.2431L10.8066 4.18909C12.2941 3.19889 14.08 2.6217 16.0008 2.6217ZM22.907 18.3625C22.819 18.4581 22.7291 18.5519 22.6373 18.6438C22.3867 18.8944 22.1219 19.1307 21.8444 19.3518L20.8087 18.3145C21.0908 18.0992 21.358 17.8655 21.6085 17.615C21.7006 17.5228 21.7905 17.4284 21.878 17.3318L22.907 18.3625ZM20.62 20.179C19.2562 20.9516 17.68 21.3928 16.0008 21.3928C13.4091 21.3928 11.0627 20.3422 9.36426 18.6438C7.66579 16.9453 6.61523 14.5989 6.61523 12.0072C6.61523 10.3226 7.05926 8.74169 7.83645 7.37492L8.91067 8.45086C8.37313 9.52049 8.07037 10.7285 8.07037 12.0072C8.07037 14.1972 8.958 16.1799 10.3931 17.615C11.8281 19.05 13.8108 19.9377 16.0008 19.9377C17.275 19.9377 18.479 19.6371 19.5458 19.1031L20.62 20.179ZM8.66561 6.15181C8.88396 5.87858 9.11722 5.61776 9.36426 5.37073C9.45966 5.27532 9.55722 5.18209 9.65665 5.09084L10.6857 6.12151C10.5858 6.21173 10.4882 6.3044 10.3931 6.39954C10.1456 6.64702 9.91439 6.91078 9.70123 7.1891L8.66561 6.15181Z" fill="#2B2A29"/>
<path d="M15.9997 6.84155C16.2094 6.84155 16.4304 6.85687 16.6608 6.88648C16.8853 6.91533 17.1022 6.9576 17.3107 7.01227L18.032 7.20149L17.8251 7.91603C17.8087 7.97259 17.7956 8.03451 17.7862 8.10154C17.7782 8.15798 17.774 8.22302 17.774 8.29673C17.774 8.67419 17.9256 9.01483 18.1706 9.26035C18.4141 9.50442 18.7526 9.6554 19.1282 9.6554C19.2384 9.6554 19.3411 9.64383 19.4357 9.62199C19.5396 9.59798 19.6359 9.56385 19.7233 9.52102L20.394 9.19228L20.7038 9.87345C20.8541 10.2038 20.9704 10.5519 21.0484 10.9132C21.125 11.2681 21.1654 11.6342 21.1654 12.0073C21.1654 12.7584 21.005 13.4721 20.7166 14.1161L19.5817 12.9793C19.6655 12.6695 19.7103 12.3436 19.7103 12.0073C19.7103 11.7348 19.6817 11.4715 19.6274 11.2202C19.6166 11.17 19.6048 11.1203 19.592 11.071C19.4389 11.097 19.2839 11.1105 19.1282 11.1105C18.3541 11.1105 17.6517 10.7945 17.1418 10.2835C16.6359 9.77651 16.3221 9.07844 16.319 8.30826C16.2195 8.30059 16.1131 8.29669 15.9997 8.29669C15.6654 8.29669 15.3415 8.34091 15.0334 8.42377L13.8984 7.28697C14.5404 7.00075 15.2515 6.84155 15.9997 6.84155ZM19.9196 15.3715C19.8342 15.471 19.745 15.5672 19.6523 15.6599C19.4016 15.9107 19.1251 16.1358 18.8273 16.3309L17.7682 15.2702C18.0838 15.0988 18.3717 14.8829 18.6235 14.6311C18.7166 14.538 18.8047 14.4401 18.8874 14.3376L19.9196 15.3715ZM17.4202 16.9752C16.9689 17.104 16.4923 17.173 15.9997 17.173C14.5733 17.173 13.2819 16.5947 12.347 15.6599C11.4122 14.7251 10.834 13.4336 10.834 12.0073C10.834 11.5117 10.9038 11.0325 11.0341 10.5788L12.2929 11.8397C12.2905 11.8952 12.2891 11.9511 12.2891 12.0073C12.2891 13.032 12.7044 13.9597 13.3759 14.6311C14.0473 15.3025 14.975 15.7178 15.9997 15.7178C16.0539 15.7178 16.1077 15.7166 16.1613 15.7143L17.4202 16.9752ZM11.6806 9.17272C11.8747 8.87754 12.0982 8.60344 12.347 8.35461C12.4417 8.25997 12.5401 8.16902 12.6418 8.08191L13.674 9.11573C13.5698 9.1996 13.4703 9.28899 13.3759 9.38343C13.1254 9.63388 12.9106 9.92004 12.7397 10.2336L11.6806 9.17272Z" fill="#2B2A29"/>
<path d="M27.3139 22.7773C27.5964 23.0614 27.5951 23.5208 27.3111 23.8033C27.027 24.0858 26.5676 24.0846 26.2851 23.8005L3.75794 1.23705C3.47541 0.952954 3.47669 0.493595 3.76078 0.211067C4.04487 -0.0714605 4.50423 -0.0701887 4.78676 0.213903L27.3139 22.7773Z" fill="#2B2A29"/>
</svg>
