<svg width="32" height="20" viewBox="0 0 32 20" fill="none" xmlns="http://www.w3.org/2000/svg">
<path d="M16 0C19.7235 0 23.1903 1.21788 25.9258 2.82732C29.6071 4.99317 32 7.95916 32 9.71288C32 11.4538 29.4613 14.3581 25.805 16.5093C22.9951 18.1624 19.5024 19.4258 16 19.4258C12.5369 19.4258 9.08452 18.1653 6.29178 16.5223C2.58386 14.3408 0 11.3852 0 9.71288C0 8.02978 2.43221 5.01301 6.16431 2.81729C8.88551 1.2163 12.3168 0 16 0ZM25.1926 4.07781C22.6551 2.58489 19.4432 1.45514 16 1.45514C12.598 1.45514 9.42107 2.58309 6.89755 4.06777C3.60252 6.00635 1.45514 8.45495 1.45514 9.71288C1.45514 10.9408 3.74255 13.3406 7.02502 15.2718C9.62091 16.799 12.8165 17.9706 16 17.9706C19.224 17.9706 22.4591 16.7959 25.0718 15.2588C28.302 13.3583 30.5449 10.9976 30.5449 9.71288C30.5449 8.39641 28.4364 5.98626 25.1926 4.07781Z" fill="#2B2A29"/>
<path d="M16.0008 0.327393C18.5924 0.327393 20.9388 1.37795 22.6373 3.07641C24.3358 4.77488 25.3863 7.12127 25.3863 9.71294C25.3863 12.3046 24.3358 14.651 22.6373 16.3495C20.9388 18.0479 18.5924 19.0985 16.0008 19.0985C13.4091 19.0985 11.0627 18.0479 9.36426 16.3495C7.66579 14.651 6.61523 12.3046 6.61523 9.71294C6.61523 7.12127 7.66579 4.77488 9.36426 3.07641C11.0627 1.37795 13.4091 0.327393 16.0008 0.327393ZM21.6085 4.10523C20.1734 2.67016 18.1908 1.78253 16.0008 1.78253C13.8108 1.78253 11.8281 2.67016 10.3931 4.10523C8.958 5.5403 8.07038 7.52294 8.07038 9.71294C8.07038 11.9029 8.958 13.8856 10.3931 15.3206C11.8281 16.7557 13.8108 17.6433 16.0008 17.6433C18.1908 17.6433 20.1734 16.7557 21.6085 15.3206C23.0436 13.8856 23.9312 11.9029 23.9312 9.71294C23.9312 7.52294 23.0436 5.5403 21.6085 4.10523Z" fill="#2B2A29"/>
<path fill-rule="evenodd" clip-rule="evenodd" d="M16.0006 5.27478C16.3908 5.27478 16.7692 5.32533 17.1298 5.4199C17.0762 5.60478 17.0474 5.8002 17.0474 6.00239C17.0474 7.15458 17.9794 8.08863 19.1292 8.08863C19.4568 8.08863 19.7668 8.01268 20.0425 7.87751C20.297 8.43689 20.4388 9.05832 20.4388 9.71292C20.4388 12.164 18.4517 14.1511 16.0006 14.1511C13.5495 14.1511 11.5625 12.164 11.5625 9.71292C11.5625 7.26181 13.5495 5.27478 16.0006 5.27478Z" fill="#2B2A29"/>
<path d="M15.9997 4.54712C16.2094 4.54712 16.4304 4.56243 16.6608 4.59204C16.8853 4.6209 17.1022 4.66316 17.3107 4.71783L18.032 4.90705L17.8251 5.6216C17.8087 5.67816 17.7956 5.74008 17.7862 5.80711C17.7782 5.86355 17.774 5.92858 17.774 6.00229C17.774 6.37976 17.9256 6.7204 18.1706 6.96592C18.4141 7.20998 18.7526 7.36097 19.1282 7.36097C19.2384 7.36097 19.3411 7.3494 19.4357 7.32756C19.5396 7.30355 19.6359 7.26942 19.7233 7.22659L20.394 6.89785L20.7038 7.57901C20.8541 7.9094 20.9704 8.2575 21.0484 8.61879C21.125 8.97371 21.1654 9.33981 21.1654 9.71283C21.1654 11.1392 20.5872 12.4306 19.6523 13.3655C18.7175 14.3003 17.4261 14.8785 15.9997 14.8785C14.5733 14.8785 13.2819 14.3003 12.347 13.3655C11.4122 12.4306 10.834 11.1392 10.834 9.71283C10.834 8.28644 11.4122 6.99502 12.347 6.06018C13.2819 5.12536 14.5733 4.54712 15.9997 4.54712ZM16.319 6.01383C16.2195 6.00616 16.1131 6.00226 15.9997 6.00226C14.975 6.00226 14.0473 6.41757 13.3759 7.08899C12.7044 7.76043 12.2891 8.6881 12.2891 9.71283C12.2891 10.7375 12.7044 11.6652 13.3759 12.3367C14.0473 13.0081 14.975 13.4234 15.9997 13.4234C17.0244 13.4234 17.9521 13.0081 18.6235 12.3367C19.295 11.6652 19.7103 10.7375 19.7103 9.71283C19.7103 9.44039 19.6817 9.17711 19.6274 8.92574C19.6166 8.87559 19.6048 8.82584 19.592 8.77653C19.4389 8.80255 19.2839 8.81611 19.1282 8.81611C18.3541 8.81611 17.6517 8.50003 17.1418 7.98906C16.6359 7.48208 16.3221 6.784 16.319 6.01383Z" fill="#2B2A29"/>
</svg>
