<svg width="32" height="32" viewBox="0 0 32 32" fill="none" xmlns="http://www.w3.org/2000/svg">
<path fill-rule="evenodd" clip-rule="evenodd" d="M1 16C1 7.71573 7.71573 1 16 1C24.2843 1 31 7.71573 31 16C31 24.2843 24.2843 31 16 31C7.71573 31 1 24.2843 1 16ZM12.6503 12.7984C13.3674 13.2132 14.285 12.9682 14.6998 12.2511C16.1353 10.1731 18.9102 12.94 16.6351 14.2925C16.2262 14.5356 15.6914 14.9402 15.2846 15.4359C14.8995 15.9053 14.5458 16.5507 14.5042 17.344C14.4989 17.3953 14.4962 17.4473 14.4962 17.5C14.4962 18.3284 15.1677 19 15.9962 19C17.1396 19 17.3572 18.3926 17.5768 17.7796C17.7181 17.3853 17.8602 16.9887 18.2501 16.75C19.49 15.991 20.5001 14.6466 20.5001 13C20.5001 10.5147 18.4854 8.5 16.0001 8.5C14.3326 8.5 12.8788 9.40777 12.103 10.7489C11.6882 11.466 11.9333 12.3836 12.6503 12.7984ZM14.4962 22C14.4962 21.1716 15.1677 20.5 15.9962 20.5C16.8246 20.5 17.4962 21.1716 17.4962 22C17.4962 22.8284 16.8246 23.5 15.9962 23.5C15.1677 23.5 14.4962 22.8284 14.4962 22Z" fill="url(#paint0_linear_109236_189721)"/>
<defs>
<linearGradient id="paint0_linear_109236_189721" x1="3.88462" y1="5.03846" x2="26.3846" y2="27.5385" gradientUnits="userSpaceOnUse">
<stop stop-color="#1890FF"/>
<stop offset="1" stop-color="#F759AB"/>
</linearGradient>
</defs>
</svg>
