<svg width="45" height="40" viewBox="0 0 45 40" fill="none" xmlns="http://www.w3.org/2000/svg">
<path d="M22.5 3.33203V9.9987M22.5 29.9987V36.6654M9.24375 8.21536L14.55 12.932M30.45 27.0654L35.7563 31.782M3.75 19.9987H11.25M33.75 19.9987H41.25M9.24375 31.782L14.55 27.0654M30.45 12.932L35.7563 8.21536" stroke="black" stroke-width="2" stroke-linecap="round" stroke-linejoin="round"/>
<path d="M22.5 14.668C19.1918 14.668 16.5 17.0606 16.5 20.0013C16.5 22.942 19.1918 25.3346 22.5 25.3346C25.8083 25.3346 28.5 22.942 28.5 20.0013C28.5 17.0606 25.8083 14.668 22.5 14.668ZM18.75 20.0013C18.75 19.4466 18.918 18.932 19.188 18.4713L24.2213 22.9453C23.6915 23.1971 23.1008 23.3307 22.5 23.3346C20.4323 23.3346 18.75 21.8393 18.75 20.0013ZM25.812 21.5313L20.7788 17.0573C21.3085 16.8055 21.8992 16.6719 22.5 16.668C24.5678 16.668 26.25 18.1633 26.25 20.0013C26.25 20.556 26.082 21.0706 25.812 21.5313Z" fill="#DE0808"/>
</svg>
