<svg width="45" height="40" viewBox="0 0 45 40" fill="none" xmlns="http://www.w3.org/2000/svg">
<path d="M22.5 3.33203V9.9987M22.5 29.9987V36.6654M9.24375 8.21536L14.55 12.932M30.45 27.0654L35.7563 31.782M3.75 19.9987H11.25M33.75 19.9987H41.25M9.24375 31.782L14.55 27.0654M30.45 12.932L35.7563 8.21536" stroke="black" stroke-width="2" stroke-linecap="round" stroke-linejoin="round"/>
<path d="M29.8125 22.2481H18.4465C18.6012 21.9719 18.7566 21.6894 18.9099 21.4025C18.9268 21.3719 18.9429 21.34 18.9591 21.3112C19.9125 21.2112 20.9827 20.6075 22.1597 19.505C22.5345 20.2587 23.149 21.0594 24.1039 21.22C24.473 21.2825 25.0524 21.2694 25.714 20.8569C25.9463 20.7095 26.1603 20.5406 26.3525 20.3531C26.9382 20.8294 27.9753 21.2481 29.8125 21.2481C30.0363 21.2481 30.2509 21.1691 30.4092 21.0285C30.5674 20.8878 30.6563 20.697 30.6563 20.4981C30.6563 20.2992 30.5674 20.1084 30.4092 19.9678C30.2509 19.8271 30.0363 19.7481 29.8125 19.7481C27.5161 19.7481 27.2947 19.0225 27.2813 18.9606C27.2714 18.7908 27.197 18.629 27.0701 18.5017C26.9431 18.3745 26.7714 18.2893 26.5829 18.2603C26.3944 18.2312 26.2004 18.2599 26.0327 18.3418C25.8649 18.4236 25.7335 18.5537 25.6599 18.7106C25.0011 19.5813 24.563 19.7731 24.4182 19.7481C24.0729 19.69 23.5428 18.7669 23.3269 17.8488C23.2926 17.7003 23.2085 17.5647 23.0857 17.4596C22.9629 17.3545 22.8072 17.2849 22.6391 17.26C22.471 17.2351 22.2983 17.256 22.1438 17.3201C21.9893 17.3841 21.8603 17.4882 21.7737 17.6188C21.0706 18.3925 20.4687 18.9269 19.9681 19.275C21.4664 15.9506 21.1739 14.7425 20.7746 14.1144C20.423 13.56 19.7902 13.2531 18.9914 13.25H18.9689C17.7033 13.2581 16.6887 14.2913 16.2457 16.0169C16.0032 16.9625 15.9645 18.0094 16.1431 18.8881C16.3287 19.8063 16.7288 20.4925 17.311 20.9019C17.06 21.3631 16.8047 21.8162 16.5551 22.2481H15.1875C14.9638 22.2481 14.7492 22.3271 14.5909 22.4678C14.4327 22.6084 14.3438 22.7992 14.3438 22.9981C14.3438 23.197 14.4327 23.3878 14.5909 23.5285C14.7492 23.6691 14.9638 23.7481 15.1875 23.7481H15.6572C14.9766 24.8525 14.4732 25.5981 14.4619 25.6112C14.4048 25.6957 14.3669 25.7892 14.3505 25.8867C14.3341 25.9841 14.3394 26.0834 14.3662 26.179C14.3929 26.2746 14.4406 26.3646 14.5065 26.4438C14.5724 26.523 14.6552 26.5899 14.7502 26.6406C14.882 26.7117 15.0334 26.7489 15.1875 26.7481C15.3331 26.7482 15.4763 26.7148 15.6031 26.6512C15.7299 26.5876 15.836 26.4959 15.9111 26.385C15.9546 26.3194 16.6796 25.2481 17.5782 23.7481H29.8125C30.0363 23.7481 30.2509 23.6691 30.4092 23.5285C30.5674 23.3878 30.6563 23.197 30.6563 22.9981C30.6563 22.7992 30.5674 22.6084 30.4092 22.4678C30.2509 22.3271 30.0363 22.2481 29.8125 22.2481ZM27.2813 18.9981V18.9644C27.2824 18.9756 27.2824 18.9869 27.2813 18.9981ZM17.8904 16.3488C18.1245 15.4356 18.5935 14.7481 18.9844 14.7481C19.2425 14.7481 19.2832 14.8106 19.3079 14.8506C19.4084 15.0094 19.7684 15.9188 18.083 19.4006C17.9475 19.155 17.8532 18.8931 17.8032 18.6231C17.6668 17.8671 17.6964 17.0948 17.8904 16.3488Z" fill="#218100"/>
</svg>
